<svg xmlns="http://www.w3.org/2000/svg" xmlns:xlink="http://www.w3.org/1999/xlink" id="Layer_1" x="0px" y="0px" viewBox="0 0 1000 500" style="enable-background:new 0 0 1000 500;" xml:space="preserve"><style type="text/css">	.st0{opacity:0.33;}</style><path id="path71778" d="M1004.7,440.5L1004.7,440.5C1004.7,440.5,1004.7,440.5,1004.7,440.5L1004.7,440.5z M1029.4,426.2 L1029.4,426.2C1029.4,426.2,1029.4,426.2,1029.4,426.2C1029.4,426.2,1029.4,426.2,1029.4,426.2 M1038.4,354.4 C1038.4,354.4,1038.4,354.4,1038.4,354.4L1038.4,354.4L1038.4,354.4z M1038.8,357.8C1038.8,357.8,1038.8,357.8,1038.8,357.8 C1038.8,357.8,1038.8,357.8,1038.8,357.8C1038.8,357.8,1038.8,357.8,1038.8,357.8 M993.7,390.8c0.6-0.3,1.3,0.1,1.7,0.7 c0.1,0.1,0.2,0.2,0.2,0.2c-0.8-0.4-1.6-0.6-2.5-0.7C993.3,390.9,993.5,390.8,993.7,390.8 M980.9,289.3 C980.9,289.3,980.9,289.2,980.9,289.3C980.9,289.2,981,289.2,980.9,289.3C981,289.2,980.9,289.3,980.9,289.3 M1031.7,341.1 C1031.7,341.1,1031.7,341.1,1031.7,341.1C1031.7,341.1,1031.7,341.1,1031.7,341.1C1031.7,341.1,1031.7,341.1,1031.7,341.1  M1047.3,428C1047.3,428,1047.3,428,1047.3,428L1047.3,428C1047.3,428,1047.3,428,1047.3,428L1047.3,428L1047.3,428 C1047.3,428,1047.3,428,1047.3,428c0-0.1,0.1-0.1,0.1-0.1C1047.4,427.9,1047.4,427.9,1047.3,428C1047.3,428,1047.3,428,1047.3,428 C1047.3,428,1047.3,428,1047.3,428L1047.3,428L1047.3,428z M1020.4,411.8c0.1,0.1,0.2,0.2,0.4,0.3c-0.1,0.1-0.2,0.3-0.3,0.3 c0,0,0,0,0,0C1020.5,412.3,1020.5,412.1,1020.4,411.8 M1019.4,402.6C1019.4,402.6,1019.4,402.6,1019.4,402.6 C1019.4,402.6,1019.4,402.6,1019.4,402.6C1019.4,402.6,1019.4,402.6,1019.4,402.6 M980.9,289.3C980.9,289.3,980.9,289.3,980.9,289.3 L980.9,289.3C980.9,289.3,980.9,289.3,980.9,289.3 M1020,399.2c0-0.1,0-0.1,0.1-0.1c0,0,0,0,0.1,0 C1020.1,399.1,1020.1,399.1,1020,399.2 M1029.8,402.9C1029.8,402.9,1029.8,402.9,1029.8,402.9L1029.8,402.9z M1022,396.3 C1022,396.3,1022,396.3,1022,396.3C1022,396.3,1022,396.3,1022,396.3 M1007.9,343.7C1007.9,343.7,1007.9,343.7,1007.9,343.7 C1007.9,343.6,1007.9,343.6,1007.9,343.7C1007.9,343.6,1007.9,343.6,1007.9,343.7 M1011.8,316.9 C1011.8,316.9,1011.7,316.9,1011.8,316.9C1011.7,316.9,1011.7,316.9,1011.8,316.9C1011.7,316.9,1011.8,316.9,1011.8,316.9  M974.6,364.2c0.1-0.1,0.2-0.2,0.3-0.2C974.8,364.1,974.7,364.2,974.6,364.2 M918.3,525.1C918.3,525.1,918.3,525.1,918.3,525.1 C918.3,525.1,918.3,525.1,918.3,525.1C918.3,525.1,918.3,525.1,918.3,525.1 M872.2,509.1C872.2,509.1,872.2,509.1,872.2,509.1 C872.2,509.1,872.2,509.1,872.2,509.1C872.2,509.1,872.2,509.1,872.2,509.1 M851.9,514.2C851.9,514.2,851.9,514.2,851.9,514.2 C851.9,514.2,851.9,514.2,851.9,514.2C851.9,514.2,851.9,514.2,851.9,514.2 M856.7,512.6C856.7,512.6,856.7,512.6,856.7,512.6 C856.7,512.6,856.7,512.6,856.7,512.6 M889.5,510.6C889.5,510.6,889.5,510.6,889.5,510.6C889.5,510.6,889.5,510.6,889.5,510.6 C889.5,510.6,889.5,510.6,889.5,510.6 M900.1,511.9c-0.1,0-0.1,0-0.1,0.1C900,511.9,900,511.9,900.1,511.9 M986.5,449.9 c0-0.2,0-0.3,0-0.5c0.1,0.2,0.2,0.2,0.3,0.3C986.6,449.8,986.5,449.9,986.5,449.9 M943.2,460.9C943.2,460.9,943.2,461,943.2,460.9 C943.1,461,943.1,461,943.2,460.9C943.1,461,943.1,461,943.2,460.9 M975.7,445.9L975.7,445.9C975.7,445.8,975.7,445.8,975.7,445.9 L975.7,445.9z M962.3,473.3L962.3,473.3C962.3,473.4,962.3,473.4,962.3,473.3C962.3,473.4,962.3,473.4,962.3,473.3 M973.1,445.5 C973.1,445.5,973.1,445.5,973.1,445.5C973.1,445.5,973.1,445.5,973.1,445.5C973.1,445.5,973.1,445.5,973.1,445.5 M972.5,442.8 C972.5,442.8,972.5,442.8,972.5,442.8L972.5,442.8C972.5,442.8,972.5,442.8,972.5,442.8 M940.4,422.1c-3.9-2.6-7.9-4.9-12.2-6.8 c-0.3,0-0.5,0-0.7,0c-0.1-0.1-0.3-0.1-0.4-0.2c-1.9-1-3.9-2-5.8-3.1c-2.4-1.2-4.7-2.5-7.1-3.7c0,0,0,0,0,0c0-0.1,0.1-0.1,0-0.2 c-1.3-1.5-3.2-2-4.9-3c-1.2-0.7-2.3-1.7-3.7-2c-0.1,0-0.2,0.1-0.2,0.1c-0.4-0.2-0.8-0.5-1.2-0.8c-11.4-7.6-21.8-16.5-31.9-25.6 c-2.7-2.4-5.5-4.7-8.3-7c0-0.1,0-0.1,0-0.2c-0.4-0.9-1.2-1.5-2-1.9c-1.5-0.8-2.3-2.2-2.8-3.7c0.5-0.2,0.6-0.8,0.7-1.2 c0.2-0.8,0.5-1.6,0.7-2.4c0.9-3.2,2.4-6.3,3-9.6c0-0.2-0.1-0.4-0.2-0.5c1.1-4.3,2.3-8.7,3.5-13c0.6-2.5,1.1-5.1,1.7-7.6 c0.2-0.2,0.4-0.4,0.5-0.7c0.9-3.2,1.3-6.4,1.8-9.4c0.7,1.8,0.5,4.2,1.9,6.1c0,0,0.1,0,0.1,0c1.2,4.4,2.5,8.9,3.7,13.3 c0.3,1,0.7,2,1,3c0.4,1.3,0.9,2.6,1.3,3.9l0.9,2.2c0.7,1.5,1.3,3.2,2.2,4.6c4.9,7.1,9.8,14.2,14.7,21.3c0,0,0.1,0.1,0.1,0.1 c5.4,6.8,10.6,13.7,16.1,20.4c2.4,3,5.1,5.9,8,8.5c4.8,4.3,9.7,8.4,14.7,12.4c4.1,3.4,8.4,6.6,12.5,9.8c0,0.1-0.1,0.1-0.1,0.2 c0.7,1.4,2.4,1.7,3.3,2.6c-0.9-0.5-2-1.4-3.5-1.2c0,0,0,0,0,0.1c-0.2-0.7-0.8-0.9-1.3-1.1C944.5,424.8,942.4,423.5,940.4,422.1  M905.2,416.1C905.2,416.1,905.1,416.1,905.2,416.1C905.1,416,905.1,416,905.2,416.1C905.2,416,905.2,416.1,905.2,416.1  M811.2,296.9c-0.1,0-0.1,0.1-0.2,0.1c0.1-0.1,0.2-0.3,0.2-0.4C811.3,296.7,811.5,296.8,811.2,296.9 M915,372.8 C915,372.9,915,372.9,915,372.8C915,372.9,915,372.9,915,372.8C915,372.9,915,372.8,915,372.8 M798.5,246.9c0-0.1-0.1-0.2-0.1-0.2 c0,0,0.1,0.1,0.1,0C798.5,246.7,798.5,246.8,798.5,246.9 M826.2,263.9c0-0.1,0-0.1,0-0.2C826.2,263.8,826.2,263.9,826.2,263.9  M931.7,307.8c0-0.1-0.1-0.1-0.1-0.2c0,0,0,0,0,0c0.1,0,0.1-0.1,0.1-0.1C931.8,307.6,931.7,307.7,931.7,307.8 M950.1,410.6 C950.1,410.6,950.1,410.6,950.1,410.6C950.1,410.6,950.1,410.6,950.1,410.6C950.1,410.6,950.1,410.6,950.1,410.6 M838.9,332.3 C838.9,332.3,838.9,332.3,838.9,332.3C838.9,332.3,838.9,332.3,838.9,332.3C838.9,332.3,838.9,332.3,838.9,332.3 M803.4,209.8 c0-0.1,0-0.3,0-0.5c0.2,0.1,0.4,0.2,0.6,0.3C803.8,209.6,803.5,209.7,803.4,209.8 M939.2,330.9l0-0.1c0,0,0,0,0,0 C939.3,330.9,939.3,330.9,939.2,330.9C939.3,330.9,939.3,330.9,939.2,330.9 M829.8,266C829.8,266,829.8,266,829.8,266 c0-0.1,0-0.1,0-0.1C829.9,265.9,829.8,265.9,829.8,266 M899.3,265.8c0.1-0.2,0.1-0.4,0.2-0.6c0,0,0,0,0,0 C899.5,265.5,899.4,265.7,899.3,265.8 M900.7,269.1c-0.1,0-0.2,0-0.3,0.1c0.1-0.1,0.1-0.1,0.2-0.2 C900.6,269,900.7,269.1,900.7,269.1 M869.6,312.4c0,0.1-0.1,0.1-0.1,0.2c0,0,0,0,0-0.1C869.5,312.4,869.5,312.4,869.6,312.4  M810.3,209.1C810.3,209.1,810.4,209.1,810.3,209.1C810.4,209.1,810.4,209.1,810.3,209.1C810.4,209.1,810.3,209.1,810.3,209.1  M842.6,195.4C842.6,195.4,842.6,195.4,842.6,195.4C842.6,195.4,842.7,195.4,842.6,195.4C842.7,195.4,842.6,195.4,842.6,195.4  M858.1,303.3C858.1,303.4,858.1,303.4,858.1,303.3c0,0-0.1,0-0.1,0C858,303.3,858.1,303.3,858.1,303.3 M811.2,202.5 C811.2,202.6,811.2,202.6,811.2,202.5c0,0.1,0,0.1,0,0.1C811.2,202.6,811.2,202.6,811.2,202.5 M929.1,317.8 C929.1,317.8,929.1,317.7,929.1,317.8C929.1,317.7,929.1,317.8,929.1,317.8 M931,348.1c0.2-0.2,0.4-0.3,0.7-0.6 c-0.2,0.4-0.3,0.6-0.4,0.9C931.3,348.3,931.1,348.2,931,348.1 M930,346.6c0,0,0,0.1,0,0.1c0,0,0,0-0.1,0 C930,346.7,930,346.7,930,346.6 M930.1,379.6C930.1,379.6,930.1,379.7,930.1,379.6C930.1,379.7,930,379.6,930.1,379.6 C930,379.6,930,379.6,930.1,379.6 M823.9,245.9C823.8,245.9,823.8,245.9,823.9,245.9c0-0.1,0-0.1,0-0.2 C823.9,245.8,823.9,245.9,823.9,245.9 M818.8,196.1C818.7,196.1,818.7,196.1,818.8,196.1C818.7,196.1,818.7,196.1,818.8,196.1 C818.7,196.1,818.7,196.1,818.8,196.1 M889,266.5L889,266.5C889,266.5,889,266.5,889,266.5C889,266.5,889,266.5,889,266.5  M905.2,279.3L905.2,279.3C905.2,279.3,905.2,279.3,905.2,279.3L905.2,279.3z M927.2,377.3C927.2,377.3,927.2,377.3,927.2,377.3 c0,0.1,0,0.1,0,0.2C927.2,377.4,927.2,377.4,927.2,377.3 M926.7,336.9C926.7,336.8,926.7,336.8,926.7,336.9c0.1-0.1,0.1-0.1,0.1-0.1 C926.8,336.8,926.7,336.8,926.7,336.9 M850.7,286C850.8,286,850.8,286,850.7,286C850.8,286,850.8,286.1,850.7,286 C850.7,286.1,850.7,286,850.7,286 M846.8,289.6L846.8,289.6C846.8,289.6,846.8,289.6,846.8,289.6 C846.8,289.6,846.8,289.6,846.8,289.6C846.8,289.6,846.8,289.6,846.8,289.6C846.7,289.6,846.7,289.6,846.8,289.6 C846.7,289.6,846.7,289.6,846.8,289.6L846.8,289.6 M835.7,301.7C835.6,301.6,835.8,301.5,835.7,301.7c0.1,0.1,0.1,0.3,0.1,0.5 c0,0-0.1-0.1-0.1-0.1C835.7,302,835.8,301.9,835.7,301.7 M881.8,298.5C881.8,298.5,881.8,298.6,881.8,298.5 C881.8,298.6,881.8,298.6,881.8,298.5C881.8,298.5,881.8,298.5,881.8,298.5 M864.8,245.6c0,0-0.1,0.1-0.1,0.1 C864.7,245.7,864.7,245.7,864.8,245.6c-0.1,0.1-0.1,0.1-0.2,0.1C864.7,245.7,864.8,245.7,864.8,245.6 M900.9,316.2 c0.1,0,0.1,0.1,0.2,0.1c0,0,0,0-0.1,0C901,316.3,901,316.3,900.9,316.2 M862.9,285.6L862.9,285.6C863,285.6,863,285.6,862.9,285.6 C863,285.6,863,285.6,862.9,285.6L862.9,285.6C863,285.6,863,285.6,862.9,285.6C863,285.6,862.9,285.6,862.9,285.6 M837.2,257.1 c0.1,0.4,0.1,0.8-0.5,1.1c0,0,0,0,0,0C836.8,258,837,257.6,837.2,257.1 M833.3,256.8c0,0,0.1,0,0.1,0.1 C833.4,256.9,833.4,256.9,833.3,256.8C833.4,256.9,833.3,256.9,833.3,256.8C833.3,256.9,833.3,256.9,833.3,256.8 M866.8,262.6 c0.1-0.1,0.2-0.2,0.3-0.3c0.1,0.1,0.2,0.2,0.2,0.3C867.1,262.5,866.9,262.5,866.8,262.6 M854.1,286.1 C854.1,286.2,854.1,286.2,854.1,286.1C854.1,286.2,854.1,286.2,854.1,286.1C854.1,286.2,854.1,286.2,854.1,286.1 M821.5,207.2 c0,0-0.1,0-0.1,0C821.4,207.2,821.5,207.1,821.5,207.2C821.5,207.1,821.5,207.1,821.5,207.2 M830.4,241c-0.2-0.1-0.4-0.1-0.5-0.2 c-0.2-0.1-0.4-0.4-0.5-0.7C829.6,240.4,829.9,240.6,830.4,241 M826.4,213.6C826.4,213.6,826.4,213.6,826.4,213.6 C826.4,213.6,826.4,213.6,826.4,213.6C826.4,213.6,826.4,213.6,826.4,213.6 M854.6,238.9C854.6,238.9,854.6,238.8,854.6,238.9 C854.6,238.8,854.6,238.8,854.6,238.9C854.6,238.8,854.6,238.8,854.6,238.9 M848.4,244.7C848.4,244.7,848.5,244.7,848.4,244.7 C848.5,244.7,848.5,244.7,848.4,244.7C848.5,244.7,848.5,244.7,848.4,244.7z M860.9,260C860.9,260,860.9,260,860.9,260 C860.9,260,860.9,260,860.9,260C860.9,260,860.9,260,860.9,260 M854.4,261.4C854.3,261.4,854.3,261.4,854.4,261.4 C854.3,261.4,854.3,261.4,854.4,261.4C854.4,261.4,854.4,261.4,854.4,261.4 M863.1,281.2c0.1,0,0.2,0,0.3,0c0,0,0,0.1,0,0.1 C863.3,281.3,863.3,281.3,863.1,281.2C863.1,281.2,863.1,281.2,863.1,281.2 M851.8,249.9C851.8,249.9,851.8,249.9,851.8,249.9 L851.8,249.9C851.8,249.9,851.8,249.9,851.8,249.9 M859,272.7C859,272.7,859,272.7,859,272.7C859,272.7,859,272.8,859,272.7 C859,272.8,859,272.7,859,272.7 M855.4,265.8c-0.2,0-0.2-0.1-0.1-0.3C855.4,265.5,855.4,265.7,855.4,265.8 M855.9,268.2 c0-0.1,0-0.1,0-0.2L855.9,268.2C856,268.2,856,268.2,855.9,268.2 M825.4,207.2c-0.1,0.1-0.1,0.2-0.1,0.4c0-0.2-0.1-0.5-0.1-0.8 C825.3,206.9,825.4,207.1,825.4,207.2 M915.2,295.9c-0.3,0.1-0.4-0.1-0.3-0.3C915,295.7,915,295.8,915.2,295.9 M814.6,191.5 C814.6,191.5,814.6,191.5,814.6,191.5C814.6,191.5,814.6,191.5,814.6,191.5 M812.7,190.8c0.1-0.1,0.1-0.2,0.2-0.3c0,0.1,0,0.2,0,0.4 C812.8,190.9,812.8,190.8,812.7,190.8 M816.7,280.8c-0.2-0.1-0.4-0.2-0.4-0.3c0.1,0,0.2,0.1,0.2,0.1c0,0,0,0,0,0 C816.5,280.7,816.6,280.7,816.7,280.8 M827.9,292.6C827.9,292.6,827.9,292.6,827.9,292.6C827.9,292.5,827.9,292.6,827.9,292.6 C827.9,292.6,827.9,292.6,827.9,292.6 M837.3,308.5L837.3,308.5c0,0,0-0.1,0-0.1C837.3,308.4,837.3,308.5,837.3,308.5 M809.6,276.8 C809.6,276.8,809.6,276.8,809.6,276.8C809.6,276.8,809.6,276.8,809.6,276.8C809.6,276.8,809.6,276.8,809.6,276.8 M876.6,315.7 c0.2-0.6,0.5-1.1,0.8-1.6c0,0,0,0,0-0.1C877.2,314.6,876.9,315.1,876.6,315.7 M841.4,195.6C841.4,195.6,841.4,195.6,841.4,195.6 C841.4,195.7,841.4,195.7,841.4,195.6C841.4,195.7,841.4,195.6,841.4,195.6 M817,270.6c0,0.1,0.1,0.2,0.1,0.3 C817,270.8,817,270.7,817,270.6 M863.6,374.3c0,0,0.1,0.1,0.1,0.1c0,0,0,0.1,0,0.1C863.7,374.4,863.7,374.4,863.6,374.3 M913,409.1 c0.1-0.1,0.2-0.2,0.4-0.3C913.3,408.9,913.1,409,913,409.1 M910,416.9c0,0.1-0.1,0.3-0.1,0.4C909.9,417.1,910,417,910,416.9  M818.7,437.1L818.7,437.1C818.7,437.1,818.7,437.1,818.7,437.1L818.7,437.1z M801.4,447.2C801.4,447.1,801.4,447.1,801.4,447.2 c0.1,0,0.1,0,0.1,0.1C801.5,447.2,801.4,447.2,801.4,447.2 M797.5,445.7c0,0,0,0.1,0,0.1C797.5,445.8,797.4,445.8,797.5,445.7 C797.4,445.7,797.4,445.7,797.5,445.7 M780.8,445.6c0.1,0,0.2,0,0.2,0C781,445.7,780.9,445.7,780.8,445.6 M733.3,421 c-0.1-0.1-0.2-0.1-0.2-0.2C733.2,420.9,733.3,420.9,733.3,421 M746.3,430.7c0,0.1,0,0.2-0.1,0.2 C746.2,430.9,746.2,430.8,746.3,430.7 M748.2,400.2C748.2,400.2,748.3,400.2,748.2,400.2c0,0.1,0,0.1-0.1,0.1 C748.2,400.3,748.2,400.2,748.2,400.2 M771.7,387.6L771.7,387.6C771.7,387.6,771.7,387.6,771.7,387.6 M804.7,389.4 C804.7,389.4,804.7,389.4,804.7,389.4C804.7,389.4,804.7,389.4,804.7,389.4C804.7,389.4,804.7,389.4,804.7,389.4 M832.6,407 c0,0.1,0.1,0.1,0.1,0.2c-0.1,0-0.1,0.1-0.1,0.1C832.6,407.2,832.6,407.1,832.6,407 M866.8,422.9 C866.8,422.9,866.8,422.9,866.8,422.9c0,0.1,0,0.1-0.1,0.1C866.8,422.9,866.8,422.9,866.8,422.9 M862.9,421.9 C862.9,421.9,862.9,421.9,862.9,421.9C862.9,421.9,862.9,421.9,862.9,421.9C862.9,421.9,862.9,421.9,862.9,421.9 M862.8,423.3 c-0.1,0.1-0.2,0.3-0.2,0.4c-0.1-0.1-0.2-0.1-0.3-0.2C862.5,423.5,862.6,423.4,862.8,423.3 M841.1,405.5 C841,405.5,841,405.5,841.1,405.5C841,405.4,841,405.5,841.1,405.5 M801.3,390.6C801.3,390.7,801.3,390.7,801.3,390.6 c0,0.1,0,0.1,0,0.2C801.3,390.7,801.3,390.7,801.3,390.6c-0.1-0.2-0.1-0.4-0.1-0.5C801.2,390.3,801.3,390.4,801.3,390.6 C801.3,390.6,801.3,390.6,801.3,390.6 M753.3,429.3C753.3,429.3,753.3,429.3,753.3,429.3C753.3,429.3,753.4,429.3,753.3,429.3 L753.3,429.3z M750.6,406.1c0,0.1,0,0.1,0,0.2c0-0.1-0.1-0.1-0.1-0.1C750.6,406.1,750.6,406.1,750.6,406.1 C750.6,406.1,750.6,406.1,750.6,406.1 M729,125.9c-0.1,0-0.2,0.1-0.3,0.1C728.8,125.9,728.9,125.8,729,125.9 M703,109.4 C703,109.4,703,109.4,703,109.4C703,109.3,703,109.4,703,109.4 M760.7,217.7c-0.1,0-0.3,0-0.4,0.1 C760.4,217.8,760.5,217.7,760.7,217.7 M760,217.9L760,217.9C760,217.9,760,217.9,760,217.9 M714.4,181.6 C714.4,181.6,714.3,181.6,714.4,181.6C714.3,181.6,714.4,181.6,714.4,181.6 M712.6,115.2c0,0-0.1,0-0.1-0.1c0,0,0.1,0,0.1-0.1 C712.5,115.1,712.6,115.2,712.6,115.2 M770.4,212.1C770.4,212.1,770.4,212.1,770.4,212.1c-0.1-0.1-0.2-0.1-0.3-0.2 c0.1,0,0.1-0.1,0.2-0.1C770.3,211.9,770.3,212,770.4,212.1 M738.3,180.9C738.3,180.9,738.3,180.9,738.3,180.9 C738.3,180.9,738.3,180.9,738.3,180.9C738.3,180.9,738.3,180.9,738.3,180.9 M717.1,120.8c0.1,0.2,0.2,0.4,0.3,0.6 C717.2,121.2,717.1,121.1,717.1,120.8 M731.8,139.7C731.8,139.7,731.8,139.6,731.8,139.7C731.8,139.6,731.8,139.6,731.8,139.7 C731.8,139.7,731.8,139.7,731.8,139.7 M755.7,164.9c0-0.1,0-0.1,0.1-0.1c0,0,0,0,0,0.1C755.8,164.9,755.8,164.9,755.7,164.9  M760.4,163.1c0-0.1,0-0.1-0.1-0.2c0.1,0,0.2,0,0.2,0C760.6,163,760.5,163,760.4,163.1 M760.5,168.5 C760.5,168.5,760.5,168.5,760.5,168.5c0,0,0.1,0,0.1,0.1c-0.1,0-0.1,0.1-0.2,0.1C760.4,168.6,760.5,168.5,760.5,168.5 M699.1,190.3 L699.1,190.3L699.1,190.3C699.1,190.3,699.1,190.3,699.1,190.3 M712.5,144.3C712.5,144.3,712.4,144.3,712.5,144.3 C712.4,144.3,712.5,144.2,712.5,144.3C712.5,144.2,712.5,144.3,712.5,144.3 M732.3,148.3C732.3,148.3,732.3,148.3,732.3,148.3 C732.3,148.3,732.3,148.3,732.3,148.3C732.3,148.3,732.3,148.3,732.3,148.3 M746.4,146.2C746.4,146.3,746.5,146.3,746.4,146.2 C746.5,146.3,746.4,146.3,746.4,146.2C746.4,146.3,746.4,146.3,746.4,146.2 M706.8,175.5c0.1,0.2,0.1,0.3,0.1,0.4 c-0.1,0-0.2,0-0.3,0.1C706.7,175.9,706.7,175.7,706.8,175.5 M688.4,150.4L688.4,150.4C688.4,150.3,688.4,150.3,688.4,150.4 C688.4,150.4,688.4,150.4,688.4,150.4 M731.7,151.5C731.7,151.5,731.7,151.5,731.7,151.5C731.7,151.5,731.7,151.5,731.7,151.5 L731.7,151.5z M734,153.8C734,153.8,734,153.8,734,153.8c0,0,0-0.1,0-0.2C734,153.7,734,153.7,734,153.8 M754.2,186.1 C754.2,186.1,754.2,186.1,754.2,186.1C754.2,186.1,754.2,186.1,754.2,186.1 M744.4,182.7c-0.1-0.1-0.2-0.1-0.4-0.1 C744.2,182.4,744.4,182.5,744.4,182.7 M730.2,169.8c-0.1,0.1-0.1,0.1-0.2,0.2C730,169.8,730,169.8,730.2,169.8 M728.2,167.8 c0,0.2,0.1,0.4,0.1,0.6c-0.2,0-0.4,0-0.6,0.1C727.8,168.3,728,168.1,728.2,167.8 M726.2,178.3l0.2,0.3c-0.1,0-0.3,0-0.4,0 C726.1,178.5,726.2,178.4,726.2,178.3L726.2,178.3z M682.9,154.1C682.9,154.1,682.8,154.1,682.9,154.1 C682.8,154.1,682.9,154.1,682.9,154.1C682.9,154.1,682.9,154.1,682.9,154.1 M699.2,184.4C699.2,184.4,699.2,184.4,699.2,184.4 c0,0.2-0.1,0.4-0.2,0.6C699.1,184.8,699.1,184.6,699.2,184.4 M682.3,162.7c0-0.3,0-0.6,0.1-0.9c0,0.4,0,0.8,0,1.2 C682.4,162.9,682.3,162.8,682.3,162.7 M733.1,139c-0.1,0.3-0.1,0.5-0.2,0.6C732.7,139.2,732.5,138.9,733.1,139 M713.5,118.8 c-0.1,0-0.2-0.1-0.2-0.1c0,0,0,0,0-0.1C713.4,118.7,713.4,118.7,713.5,118.8 M711,178.8c0,0-0.1,0-0.1,0.1c0-0.1,0.1-0.2,0.1-0.3 C711.1,178.6,711.1,178.7,711,178.8C711.1,178.8,711.1,178.7,711,178.8 M751.9,354.1C751.9,354,752,354,751.9,354.1 C752,354,751.9,354,751.9,354.1 M684.1,337.7C684.1,337.7,684.1,337.7,684.1,337.7c0.1,0,0.1,0,0.1,0c-0.1,0.1-0.1,0.2-0.2,0.2 C684.1,337.9,684.1,337.8,684.1,337.7 M666.4,278.4C666.4,278.4,666.4,278.4,666.4,278.4C666.4,278.4,666.4,278.4,666.4,278.4 C666.4,278.4,666.4,278.4,666.4,278.4C666.4,278.4,666.4,278.4,666.4,278.4 M715.7,344C715.7,344,715.7,344,715.7,344 c-0.1,0.2-0.1,0.5-0.1,0.8C715.4,344.6,715.5,344.4,715.7,344 M642.7,300.4c0.1,0.1,0.2,0.2,0.3,0.3 C642.8,300.6,642.7,300.5,642.7,300.4 M662,288.8c0-0.1,0-0.1,0-0.1c0.1,0,0.1,0,0.2,0C662.1,288.7,662,288.8,662,288.8  M727.7,346.3C727.7,346.3,727.7,346.3,727.7,346.3C727.7,346.4,727.7,346.4,727.7,346.3C727.7,346.3,727.7,346.3,727.7,346.3  M696.6,337.6C696.6,337.6,696.6,337.6,696.6,337.6C696.7,337.6,696.7,337.6,696.6,337.6C696.7,337.6,696.6,337.6,696.6,337.6  M633.2,284.2c0,0.1,0,0.2-0.1,0.3C633.1,284.4,633.2,284.3,633.2,284.2 M658.4,293.5C658.4,293.5,658.5,293.6,658.4,293.5 C658.5,293.6,658.4,293.6,658.4,293.5C658.4,293.5,658.4,293.5,658.4,293.5 M665.4,280.1c0,0,0.1,0,0.2,0.1c-0.1,0-0.2,0-0.3,0 C665.3,280.2,665.3,280.1,665.4,280.1 M720.5,349.2c-0.1,0.1-0.1,0.1-0.1,0.2C720.4,349.3,720.4,349.2,720.5,349.2 M714.1,341.9 C714.1,341.9,714.1,341.9,714.1,341.9C714.1,341.9,714.1,341.9,714.1,341.9C714.1,341.9,714.1,341.9,714.1,341.9 C714.1,341.9,714.1,341.9,714.1,341.9 M704.5,315.6C704.5,315.6,704.5,315.6,704.5,315.6c0-0.1,0.1-0.1,0.1-0.2 C704.6,315.5,704.6,315.6,704.5,315.6 M697.2,311.9C697.2,311.9,697.1,311.9,697.2,311.9C697.1,311.8,697.2,311.8,697.2,311.9 C697.2,311.8,697.2,311.8,697.2,311.9 M664.1,282C664.1,282,664.1,282,664.1,282C664.1,282,664.1,282.1,664.1,282L664.1,282z  M642.6,283.6c0-0.1,0-0.1,0.1-0.2c0,0.2,0,0.3-0.1,0.5C642.6,283.8,642.6,283.7,642.6,283.6 M691.2,333 C691.2,333,691.2,333,691.2,333C691.2,333,691.2,333,691.2,333C691.2,333,691.2,333,691.2,333 M762.6,353.1 c-0.3-0.1-0.5-0.1-0.8-0.2C762.1,352.9,762.3,352.9,762.6,353.1 M727.4,299.3c0,0,0.1-0.1,0.1-0.1 C727.5,299.3,727.5,299.3,727.4,299.3C727.4,299.4,727.4,299.4,727.4,299.3 M1038,345.5c0.6-0.4,0.7-0.3,0.3-1.1 c-1.5-2.8-2.9-5.7-4.4-8.4c-1.2-2.1-2.5-4.1-3.8-6.1c-0.6-1-1.9-1.7-2.2-2.7c-0.9-3.1-3.3-5.1-5.1-7.4c-2.3-2.9-4.5-5.8-6.8-8.6 c-1.2-1.4-2.5-2.8-3.7-4.4c-1-1.4-3-2.1-3.4-4c0-0.1-0.1-0.2-0.2-0.2c-0.5-0.5-1-1.2-1.9-0.5c-0.1-0.6-0.2-1.3-0.3-1.9 c0,0-0.1-0.1-0.1-0.1c-0.7-0.8-1.4-1.6-2.1-2.3c-3.5-3.7-7.1-7.4-10.6-11.2c-2-2-3.9-4.1-5.9-6c-1.7-1.6-3.6-2.9-5.2-4.6 c-1.9-2-3.5-4.1-5.3-6.2c-1-1.2-2-2.5-3-3.7c-0.2-0.2-0.4-0.6-0.7-0.6c-2.2-0.4-3-2.2-3.9-4c-0.2-0.5-0.6-0.8-0.9-1.3 c-0.3-0.4-0.6-0.8-0.8-1.3c-0.4-0.8-0.5-1.6-1-2.3c-1.4-2.2-2.9-4.3-4.4-6.4c-1.5-2.1-2.9-4.1-4.5-6.1c-0.4-0.5-1.2-0.7-1.8-1 c-0.3,0.6-0.8,1.2-0.8,1.8c-0.3,4.8-0.6,9.6-0.8,14.5c-0.2,3.8-0.3,7.5-0.2,11.3c0.1,4.9,0.3,9.7,0.5,14.6c0.1,1.4,0.2,2.7,0.3,4 c0.7,7.4,1.3,14.8,2,22.2c1.7,11.3,3.4,22.6,5.1,33.9c0.7,3.3,1.4,6.6,2.2,9.8c0.2,0.6,0.4,1.2,0.7,1.8c0.4,1.6,0.8,3.3,1.1,4.9 c1.4,5.9,3.9,11.3,7.4,16.2c0.3,0.4,0.5,0.8,0.8,1.2c0.2,0.3,0.4,0.7,0.6,1c3.3,4.5,6.6,8.9,10,13.4c2.2,2.9,4.6,5.6,6.9,8.4 c0.3,0.3,0.9,0.4,1.4,0.6c0.2,0.5,0.4,1.1,0.7,1.6c2.3,3,4.6,6,7,9c0.9,1.2,1.9,2.5,2.8,3.7c0,0.1,0.1,0.2,0.1,0.3 c4,5,9.2,8.8,14.8,11.8c6.3,3.3,12.9,6.1,19.4,9c0.8,0.4,1.7,0.7,2.5,1.1c1.1,0.4,2.2,0.7,3.4,1.1c-0.6,0.1-1.1,0.3-1.7,0.3 c-8.3-0.6-16.5-1.2-24.8-1.8c-5.3-0.3-10.6-0.6-16-1c-2.5-0.4-5-0.7-7.5-1.1c-6.3-0.8-12.6-1.5-18.9-2.4c-4.5-0.6-9-1.3-13.5-2 c-0.7-1-1.6-1.9-2-3c-1-2.7-1.8-5.5-2.6-8.3c-0.8-4.6-1.6-9.3-2.4-13.9c-0.1-0.6-0.1-1.2-0.2-1.8c-1-6.3-2.1-12.5-3.1-18.8 c-0.8-5-1.7-10-2.6-15c-1.2-8.1-2.4-16.1-3.6-24.2c-0.7-6.4-1.4-12.8-2.1-19.2c-1.2-4.4-2.2-9-3.8-13.2c-1.3-3.5-2.1-7.4-5.2-10 c-0.1-0.1,0-0.3,0-0.5c-0.2-0.8-0.4-1.5-0.6-2.3c-0.7-1.4-1.5-2.8-2.2-4.2c-0.2-0.3-0.3-0.7-0.5-1c-0.1-0.2-0.1-0.3-0.2-0.5 c-5.5-9.8-11.4-19.3-18.7-27.9c-3.2-3.8-6.8-7.3-10.2-10.9c-2.1-2-4.1-4-6.2-6c-4.1-3.9-8.2-7.7-12.3-11.6c-3.2-3-6.4-6-9.5-9 c-0.7-0.7-1.1-1.6-1.6-2.4c-0.7-1.7-1.3-3.4-2-5c-1-2.3-2.1-4.5-3.1-6.8c-1.3-2.6-2.6-5.2-4-7.7c-2.7-4.4-5.3-8.9-9.2-12.4 c-2.6-2.4-5-4.9-7.5-7.4c-0.6-0.6-0.8-0.7-1.2,0.2c-0.1,0.2-0.5,0.3-0.8,0.4c-0.1-0.3-0.3-0.7-0.2-0.9c0.7-1,0.2-1.5-0.5-2 c-0.6-0.4-1.5-0.6-2.1-1.1c-1.4-1.3-2.7-2.7-4.1-4.1l-2.6-2.2c-1.6-1.4-3.1-2.8-4.7-4.2c-2.6-2.6-5.3-5.3-7.9-7.9 c-2.4-3-4.8-6-7.1-9c-1.6-2-2.9-4.3-4.5-6.3c-0.8-1-2.1-1.8-3.3-2.4c-1-0.5-2.1,0.2-2.3,1.4c-0.1,0.8-0.2,1.6-0.3,2.4 c-0.2,5.4-0.3,10.8-0.4,16.3c-0.3,3.2-0.7,6.4-1.1,9.6c-0.1,1.3-0.3,2.6-0.4,3.9c-0.1,0.6-0.2,1.3-0.3,1.9c-0.3,1.8-0.7,3.7-1,5.5 c-1.6,7.3-3.3,14.5-4.6,21.8c-0.7,4-1.2,8-1.4,12.1c-0.3,6.2-0.3,12.5-0.4,18.7c0,0.2-0.1,0.4-0.1,0.6c0.4,6.1,0.7,12.2,1.4,18.3 c0.7,5.7,1.8,11.4,2.7,17.1c0.4,1.9,0.6,3.8,1.1,5.6c1,4.4,1.9,8.9,4,13c1.4,2.7,2.9,5.4,4.4,8c5.1,8.2,10.9,16,17.3,23.2 c3.4,3.9,7.1,7.5,10.6,11.2c1.7,1.5,3.4,2.9,5.1,4.4c0.3,0.3,0.5,0.7,0.8,1c1.4,1.7,2.8,3.5,4.2,5.2c0.9,1.3,1.7,2.6,2.6,3.9 c0.2,0.5,0.5,1,0.7,1.5c0.1,0.3,0.2,0.6,0.5,1.2c-6.5-5.1-12.8-10-19.1-14.8c-0.5-0.4-1.1-0.9-1.6-1.4c-2.8-2.8-5.6-5.6-8.4-8.4 c-3.9-4.1-7.9-8.1-11.6-12.4c-3.5-3.9-6.8-7.9-10.1-11.9c-2.1-2.8-4.2-5.6-6.3-8.4c-3.4-4.8-6.8-9.7-10.2-14.5c-3-4.5-6-9-9.1-13.4 c-1.6-2.2-2.7-4.3-1.6-7c0.1-0.5,0.2-1.1,0.3-1.6c1.3-12,2.7-24,3.9-36c0.8-7.6,1.5-15.3,0.7-23c-1.1-10.7-3.1-21.3-8.1-31 c-0.4-1.3-0.8-2.7-1.2-4c0-0.1,0.1-0.2,0-0.3c-2.8-5.7-5.7-11.4-8.5-17.1c-0.1-0.2-0.4-0.2-0.6-0.3c-0.4,0.8-0.5,1.1-0.4-0.1 c0.1-0.4,0-1-0.3-1.4c-3.8-6.4-8-12.4-13.3-17.6c-1-0.8-1.9-1.5-2.9-2.3c-2.8-2.1-5.7-4.3-8.6-6.3c-1.1-0.8-2.6-1-3.5-1.8 c-1.2-1.1-2.7-1.6-4-1.7c-1.9-0.1-3-0.8-4.1-2.1c-0.4-0.4-0.9-0.6-1.4-1c-0.5-0.4-1-0.9-1.6-1.4c-0.3-0.2-0.6-0.7-0.8-0.6 c-1.7,0.1-2.9-0.8-3.8-2.1c-0.2-0.4-0.4-1-0.6-1c-1.4,0.1-2.1-1.1-3-1.7c-3-1.8-6.1-3.6-9.1-5.3c-6.9-3.9-13.6-8.2-20-12.9 c-0.8-0.6-1.8-1-2.6-1.6c-1.2-0.8-2.4-1.5-3.5-2.3c-0.5-0.5-1.2-0.7-1.7-1.1c-2.5-2-4.9-4-7.4-5.9c-1.7-1.4-3.5-2.7-5.3-4 c-1-0.7-2.1-1.2-3.2-1.8c-0.5-0.3-1-0.7-1.5-1c-0.7-0.4-1.5-0.6-2.3-0.9c-0.2,0.9-0.5,1.9-0.4,2.8c0.1,1.4,0.7,2.7,0.9,4.1 c0.7,4,1.3,8.1,1.9,12.1c0.3,2.2,0.6,4.3,1.1,6.5c1.7,8.8,3.5,17.6,5.2,26.4l1.6,6.3c1.3,4.5,2.5,9.1,3.8,13.6 c1.3,4,2.6,8.1,3.8,12.1c0.7,1.8,1.3,3.7,2,5.5c0,0.1,0,0.2,0,0.2c1.1,2.7,2.1,5.3,3.2,8c0.6,1.6,1.3,3.1,1.9,4.7 c2.9,6.4,6.3,12.6,10.2,18.5c1,1.6,2.1,3.3,3.1,4.9c2.4,3.3,4.8,6.6,7.2,9.8c5.3,7.2,11.4,13.6,17.8,19.7c0.8,0.8,1.8,1.5,2.6,2.2 c1.2,1.1,2.4,2.3,3.7,3.3c4.8,3.7,9.7,7.3,14.5,11.1c6.1,4.9,12.3,9.9,18.1,15.2c4.2,3.7,7.9,7.9,11.8,11.9c0.4,0.4,0.7,0.8,1.1,1.2 c4.4,6.2,8.7,12.3,13.1,18.5c1.6,2.1,3.2,4.3,4.8,6.4c0.3,0.4,0.5,0.9,0.8,1.2c4.1,5.4,8.1,10.7,12.2,16.1c2.1,2.7,4,5.5,6.3,8 c3.9,4.5,7.9,8.8,12,13.1c2.9,3.1,6,6,9,8.9c1.9,1.9,3.8,3.9,5.6,5.8c-0.1,0.1-0.2,0.2-0.2,0.3c-2.1-1.1-4.1-2.2-6.2-3.3 c-2.2-1.2-4.3-2.4-6.5-3.5c-7.3-3.5-13.7-8.3-19.3-14.1c-4-4.2-8.3-8-12.4-12c-5.5-5.2-11.2-10-17.6-14c-0.4-0.3-0.8-0.7-1.3-1 c-6.4-3.5-12.7-7.1-19.1-10.4c-5.6-2.9-11.3-5.5-16.9-8.3c-0.2-0.1-0.4-0.3-0.7-0.4c-5.5-1.9-10.9-4-16.4-5.7 c-4.6-1.5-9.4-2.7-14.1-3.9c-2.7-0.7-5.4-1.3-8.2-1.9c-5.7-1.3-11.5-2.5-17.2-3.8c-1.5-0.3-3-0.6-4.6-1c-4.1-0.8-8.1-1.8-12.2-2.5 c-9.3-1.6-18.7-3.1-28-4.6c-2.4-0.4-4.7-0.7-7.1-1.1c-0.5-0.1-1-0.2-1.5-0.2c-0.8-0.1-1.5-0.3-2.3-0.4l-1.6-0.3 c-2.8-0.6-5.6-1.3-8.5-1.9c-2.6-0.5-3.5,0.6-2.6,3.1c0.3,0.9,0.8,1.8,1.2,2.7c2.6,4,5.1,8,7.9,11.9c1.3,1.9,3,3.4,4.5,5.2 c0.8,0.9,1.4,2,2.1,3c2.3,2.7,4.5,5.4,6.8,8.1c1.3,1.5,2.9,2.8,4.3,4.1c0.2,0.3,0.3,0.5,0.5,0.8c2.3,2.3,4.6,4.7,7,7 c1.3,1.3,2.8,2.4,4.1,3.6c1.1,1.1,2.1,2.3,3.2,3.4c1.2,1.2,2.4,2.5,3.6,3.6c4.6,4.4,9.2,8.8,13.7,13.2c3.7,3.7,7.3,7.4,10.9,11.2 c2.3,2.4,5.1,4,8,5.3c2.9,1.4,6.1,2.4,9.2,3.4c3.1,1,6.3,1.7,9.5,2.6l19.1,3.6l0,0c1.2,0.2,2.4,0.4,3.6,0.6 c4.6,0.5,9.2,0.9,13.8,1.3c2.8,0.2,5.7,0.2,8.5,0.4c0.6,0.1,1.2,0.2,1.8,0.2c3.2-0.2,6.3-0.3,9.5-0.7c4.1-0.5,8.2-1.1,12.4-1.6 c2.7-0.4,5.4-0.7,8.1-1c0.3,0,0.7,0.1,1,0c8.6-0.9,17.1-0.5,25.6,0.4c4.3,0.5,8.6,0.7,12.9,1.1c0.2,0,0.4,0,0.5,0.1 c1,0.2,1.9,0.4,2.9,0.6c2.9,0.4,5.7,1,8.6,1.3c2.2,0.2,4.1,0.9,5.8,2.4c2.5,2.3,5.3,4.2,7.9,6.3c1,0.8,1.9,1.7,2.9,2.6 c0.8,0.7,1.7,1.3,2.5,2c1,0.9,1.9,1.9,2.9,2.8c4.5,3.9,8.9,7.7,13.5,11.5c3.9,3.3,7.9,6.4,11.8,9.7c0.7,0.6,1.4,1.2,2.2,1.7 c7.4,5.1,14.8,10.1,22.2,15.1c-2.5-0.4-4.9-0.8-7.4-1.2c-1.3-0.3-2.6-0.5-3.9-0.8c-3.7-0.6-7.5-1.2-11.2-1.8 c-2.1-0.4-4.2-0.7-6.2-1.1c0,0-0.1,0-0.2,0c-1.8-0.5-3.6-1-5.3-1.6c-5.5-1.7-11-3.5-16.5-5.3c-0.4-0.2-0.8-0.4-1.2-0.3 c-4.6-1.4-9.2-2.7-13.8-4.1c-1.9-0.6-3.8-1.2-5.8-1.7c-5.5-1.4-10.9-2.8-16.4-4.1c-1.6-0.2-3.1-0.4-4.7-0.7 c-0.8-0.2-1.6-0.5-2.4-0.8c-8.1-1.7-16.3-3.2-24.6-3.3c-0.2,0-0.4,0-0.6-0.1c-7-0.1-13.9,0.5-20.6,2.5c-5.4,1.7-10.5,4.1-15.2,7.2 c-0.5,0.2-1,0.4-1.5,0.7c-4,2.1-8.1,3.7-12.5,4c-0.6,0.1-1.5-0.2-1.9,0.2c-1.5,1.2-2.7,0.6-4.1-0.1c-3.3-0.3-6.6-0.7-10-0.8 c-3.8-0.1-7.6-0.3-11.3,0.1c-2,0.2-4.1,1.1-6,2.1c-1.7,0.9-1.5,2.4,0.1,3.4c1.8,1.2,3.5,2.5,5.2,3.8c1.7,1.3,3.4,2.6,5.3,3.7 c5.6,3.4,11,6.9,15.6,11.6c3.9,4,7.7,7.9,11.6,11.9c2,2.1,4.1,4.1,6,6.2c2,2.2,4.9,3.2,6.7,5.8c0.7,1,2.1,1.6,3.1,2.4 c0.2,0.1,0.3,0.3,0.5,0.4c5.1,2.5,10.5,3.6,16.1,4.4c7,1.1,14.1,1,21.1,0.7c9.8-0.4,19.4-1.6,29-3.6c3.1-0.7,6.5-0.7,9.1-2.9 c0.1-0.1,0.4-0.1,0.6-0.1c1.1-0.2,2.1-0.3,3.2-0.5c1-0.4,2-0.7,3-1.1c6.5-2.6,13.1-5.2,19.6-7.8c5.1-1.9,10.2-3.9,15.3-5.7 c6.2-2.3,12.4-4.5,18.6-6.8c3.2-1.1,6.5-2.2,9.7-3.3c3.5-0.9,7.1-1.8,10.6-2.7c2.6,0.3,5.2,0.7,7.8,1c0.5,0.1,1.1,0.2,1.6,0.4 c0.1,0,0.2,0.1,0.3,0.1c3.9,1.5,7.9,3,11.8,4.6c5.3,3.4,10.7,6.5,16.7,8.3l-0.7-0.6c0.2,0.2,0.4,0.4,0.7,0.6l6,1.8 c0.3,0.2,0.6,0.4,0.9,0.4c5.6,1.5,11.3,3.1,16.9,4.6c0.5,0.2,0.9,0.4,1.5,0.7c-1.6,0.3-3.1,0.5-4.6,0.7c-1.3,0.2-2.6,0.4-3.8,0.6 c-3,0.7-6.3,0.9-9.1,2.2c-5,2.2-9.9,4.8-14.6,7.5c-9.6,5.6-19,11.7-29.2,16.2c-2.7,1-5.5,1.9-8.2,2.9c-5,1.7-9.9,3.5-14.9,5.2 c-3.7,1.7-7.5,3.3-11.2,5.3c-7.1,3.7-14.2,7.5-21.1,11.5c-5.8,3.4-11.4,7.2-17.1,10.9c-0.5,0.3-1,0.7-1.5,1.1c-1,0.9-1.1,2,0,2.8 c2.3,1.6,4.8,3,7.3,4.4c3.4,1.7,6.8,3.5,10.3,5.2c0.6,0.3,1.2,0.8,1.9,1c5.4,2,10.7,4.2,16.2,5.7c5,1.4,10.2,1.9,15.3,2.8 c0.9,0.1,1.8,0.1,2.7,0.2l2.4,0.2c2.6,0,5.2,0.1,7.9,0c3.8-0.2,7.6-0.5,11.4-0.8l0.6,0c3.5-0.4,7-0.9,10.2-2.4 c3.1-1.5,6.2-2.7,9.1-4.4c4.2-2.5,8.3-5.3,12.3-8.2c2.9-2.1,5.6-4.7,8.4-7c3.2-3.1,6.3-6.2,9.5-9.3c0.6-0.6,1.3-1.2,1.8-1.8 c4.7-5.2,9.1-10.5,12.5-16.6c0.6-1,0.8-2.2,1.1-3.2c0.2-0.1,0.6-0.1,0.7-0.3c1.4-2.7,3-5.2,3.3-8.4c0.4-0.5,0.9-1,1.1-1.6 c1-3.1,1.9-6.1,2.8-9.2l0.8-3.9c0.2-1,0.4-2,0.5-2.9c0.7-2.9,0.7-2.9,3.2-2.9l13.6,0.9c3.9,0.3,7.7,0.6,11.6,0.9 c4,0.3,8,0.8,11.9,1.1c6.2,0.4,12.5,0.7,18.7,0.9c3.7,0.1,7.3,0,11,0c0.9,0,1.8,0,2.6,0c2.3-0.2,4.6-0.4,7-0.5 c2.5-0.2,4.8-1,6.2-3.3c0.1-0.7,0.2-1.3,0.4-2c-0.1-0.3-0.1-0.5-0.2-0.8c-0.4-2.1-0.6-2.4-2.8-2.2c-3.2,0.3-6.3,0.7-9.4,1l-0.6-3.8 c-0.2-3.2-0.3-6.5-0.5-9.7c-0.4-4.6-0.9-9.3-1.4-13.9c-0.3-2.6-0.6-5.3-0.9-7.9c-0.1-0.6-0.3-1.3-0.4-1.9c-0.4-2.3-0.8-4.7-1.3-7 c-0.1-0.5-0.5-0.9-0.8-1.3c-0.5-1.9-0.9-3.7-1.4-5.6c-0.8-2.7-1.6-5.5-2.4-8.2c-3.2-8-6.5-16-9.7-24c-1.7-3.8-3.5-7.6-5.3-11.3 c-0.1,0.1-0.3,0.1-0.4,0.1c0,0.6-0.1,1.2-0.1,2.2c-0.5-1-1-1.6-1.2-2.2C1037.5,346.3,1037.7,345.7,1038,345.5"></path><path id="path71778_00000171710412415702351550000004120246543583644044_" class="st0" d="M99.4,435.3L99.4,435.3 C99.5,435.3,99.5,435.2,99.4,435.3L99.4,435.3z M83.8,481L83.8,481c-0.1,0-0.1,0-0.2,0C83.7,481,83.7,480.9,83.8,481 M151.8,582.7 C151.8,582.7,151.8,582.7,151.8,582.7L151.8,582.7L151.8,582.7z M147.5,578.8C147.5,578.8,147.5,578.8,147.5,578.8 C147.4,578.8,147.4,578.8,147.5,578.8C147.4,578.8,147.4,578.8,147.5,578.8 M168.6,486.8c-0.5,1.1-1.7,1.3-2.9,1 c-0.2-0.1-0.4,0-0.6-0.1c1.5-0.4,2.7-1,4-1.8C168.9,486.2,168.7,486.4,168.6,486.8 M297.3,602.3 C297.3,602.3,297.4,602.3,297.3,602.3c0.1,0.1,0,0.1,0,0.1C297.3,602.4,297.3,602.3,297.3,602.3 M175.1,592.3 C175.1,592.4,175.1,592.4,175.1,592.3C175.1,592.4,175.1,592.4,175.1,592.3C175.1,592.3,175.1,592.3,175.1,592.3 M58.9,498.5 C58.9,498.6,58.9,498.6,58.9,498.5L58.9,498.5C58.9,498.6,58.9,498.6,58.9,498.5L58.9,498.5L58.9,498.5 C58.9,498.6,58.9,498.6,58.9,498.5c0,0.1,0,0.2-0.1,0.3C58.8,498.7,58.9,498.7,58.9,498.5C58.9,498.6,58.9,498.6,58.9,498.5 C58.9,498.6,58.9,498.6,58.9,498.5L58.9,498.5L58.9,498.5z M111.1,489.5c-0.3,0-0.5,0-0.8,0c0-0.3-0.1-0.6,0-0.8c0,0,0,0,0,0 C110.5,488.9,110.8,489.2,111.1,489.5 M122.7,500C122.7,500,122.7,500,122.7,500C122.7,500,122.7,500.1,122.7,500 C122.7,500.1,122.7,500.1,122.7,500 M297.3,602.2C297.3,602.2,297.3,602.3,297.3,602.2L297.3,602.2 C297.3,602.3,297.3,602.2,297.3,602.2 M125.7,505.1c0.1,0.1,0.2,0.1,0,0.2c0,0,0,0.1-0.1,0.1C125.6,505.4,125.6,505.2,125.7,505.1  M109.1,511.2C109.1,511.2,109.1,511.2,109.1,511.2L109.1,511.2z M126.3,511.1C126.3,511.1,126.3,511.1,126.3,511.1 C126.3,511.1,126.3,511.1,126.3,511.1 M202.6,562.7C202.6,562.7,202.6,562.6,202.6,562.7C202.7,562.6,202.7,562.7,202.6,562.7 C202.6,562.7,202.6,562.7,202.6,562.7 M227.3,601.1C227.3,601.1,227.3,601.1,227.3,601.1C227.4,601.1,227.4,601.1,227.3,601.1 C227.4,601.1,227.4,601.1,227.3,601.1 M222.4,499.4c0,0.2-0.1,0.4-0.2,0.6C222.3,499.9,222.4,499.6,222.4,499.4 M116.2,231.6 C116.2,231.6,116.2,231.6,116.2,231.6C116.2,231.6,116.1,231.6,116.2,231.6C116.1,231.6,116.1,231.6,116.2,231.6 M192.9,200.9 C192.9,200.9,192.8,201,192.9,200.9c-0.1,0.1-0.1,0.1-0.1,0.1C192.8,200.9,192.8,200.9,192.9,200.9 M213.1,171.9 C213.1,171.9,213.1,171.9,213.1,171.9C213.1,171.9,213.1,171.9,213.1,171.9C213.1,171.9,213.1,171.9,213.1,171.9 M208.7,179.3 C208.7,179.3,208.7,179.3,208.7,179.3C208.7,179.3,208.7,179.3,208.7,179.3 M169,218.2C169,218.1,169,218.1,169,218.2 c0,0,0,0.1,0,0.1C169,218.2,169,218.2,169,218.2 M154.1,228.2c0-0.1,0.1-0.2,0.1-0.2C154.2,228.1,154.2,228.2,154.1,228.2  M112.3,403.1c0.2,0.2,0.4,0.4,0.6,0.6c-0.3-0.1-0.5,0-0.8-0.1C112.2,403.4,112.3,403.3,112.3,403.1 M155.5,341.1 C155.5,341.1,155.4,341.1,155.5,341.1c0-0.1,0-0.1,0-0.1C155.5,341,155.5,341,155.5,341.1 M130.6,396.4L130.6,396.4 C130.6,396.4,130.6,396.4,130.6,396.4L130.6,396.4z M117.3,346.4L117.3,346.4C117.3,346.4,117.3,346.4,117.3,346.4 C117.3,346.4,117.3,346.4,117.3,346.4 M134.3,394C134.3,394,134.2,394,134.3,394C134.2,394,134.2,393.9,134.3,394 C134.3,393.9,134.3,393.9,134.3,394 M138.1,396.7C138.1,396.7,138.1,396.6,138.1,396.7L138.1,396.7 C138.1,396.7,138.1,396.7,138.1,396.7 M202.1,387.6c7.8-1,15.6-2.5,23.1-4.8c0.4-0.3,0.7-0.6,0.9-0.9c0.3-0.1,0.5-0.1,0.8-0.2 c3.6-0.8,7.2-1.7,10.8-2.5c4.4-1.1,8.8-2.1,13.1-3.2c0,0,0,0,0,0c0.1,0.1,0.1,0.2,0.2,0.3c3.3,0.4,6.4-1,9.6-1.6 c2.3-0.4,4.8-0.3,7-1.6c0.1-0.1,0.1-0.3,0.2-0.4c0.8-0.1,1.5-0.2,2.3-0.3c23-3,46.1-3.1,69.2-2.7c6.1,0.1,12.2-0.1,18.4-0.2 c0.1,0.1,0.1,0.1,0.2,0.2c1.5,0.6,3.1,0.6,4.6,0.2c2.8-0.7,5.3,0.2,7.7,1.6c-0.4,0.8,0.1,1.6,0.5,2.3c0.6,1.2,1.2,2.5,1.8,3.8 c2.4,5.1,3.8,10.7,6.7,15.6c0.2,0.2,0.6,0.4,0.8,0.4c3.3,6.8,6.7,13.7,10,20.5c2.1,3.9,4.2,7.7,6.3,11.6c-0.1,0.4-0.1,0.9,0.1,1.4 c2.4,5,5.5,9.6,8,14c-2.8-1.6-5.3-4.8-9.1-5.7c-0.1,0-0.1,0.1-0.2,0.1c-6.5-4.3-13-8.6-19.5-12.9c-1.5-0.9-3.1-1.8-4.6-2.7 c-2-1.2-4-2.3-6-3.5l-3.6-1.9c-2.6-1.2-5.1-2.7-7.9-3.4c-14.1-3.8-28.3-7.3-42.4-10.9c-0.1,0-0.2,0-0.3,0 c-14.4-2.8-28.8-5.8-43.2-8.3c-6.5-1.1-13.1-1.8-19.6-1.9c-10.8-0.2-21.7,0.1-32.5,0.4c-9,0.3-17.9,0.9-26.9,1.3 c-0.1-0.1,0-0.2-0.1-0.4c-2.5-1-5,0.5-7.1,0.3c1.8-0.4,4.1-0.3,5.8-2.3c0-0.1,0-0.1,0-0.1c0.9,0.7,1.9,0.3,2.9,0 C193.8,388.7,197.9,388.1,202.1,387.6 M253.7,356.3c0.1,0,0.1,0,0.1,0c0,0,0,0,0,0.1C253.7,356.4,253.7,356.3,253.7,356.3  M505.8,404.5c0.1-0.1,0.1-0.2,0.1-0.4c0,0.3,0.1,0.5,0.2,0.8C505.8,405,505.5,405,505.8,404.5 M289,422.5 C289,422.5,289,422.5,289,422.5C289,422.5,289,422.5,289,422.5C289,422.5,289,422.5,289,422.5 M577.5,454.4c0.1,0.1,0.2,0.1,0.4,0.2 c-0.1,0-0.2,0-0.2,0.1C577.6,454.6,577.5,454.5,577.5,454.4 M523.2,463.3c0.1,0.1,0.1,0.2,0.1,0.2 C523.3,463.5,523.2,463.4,523.2,463.3 M339.7,524.1c0.1,0.1,0.2,0.1,0.3,0.1c0,0,0,0,0,0c0,0.1,0,0.2,0,0.2 C339.9,524.4,339.8,524.3,339.7,524.1 M202.4,413.1c0,0-0.1,0-0.1-0.1C202.3,413,202.4,413,202.4,413.1 C202.4,413,202.4,413,202.4,413.1 M431.2,390C431.3,390,431.3,390,431.2,390C431.3,390,431.3,390,431.2,390 C431.2,390,431.2,390,431.2,390 M612.3,507.2c0.1,0.2,0.3,0.5,0.6,0.7c-0.3,0.1-0.7,0.2-1.1,0.3 C611.9,507.9,612.2,507.5,612.3,507.2 M304.5,502.9l0.1,0.2c0,0,0,0,0,0C304.5,503,304.5,503,304.5,502.9 C304.4,502.9,304.4,502.9,304.5,502.9 M516.2,464.7c0,0,0.1,0,0.1,0c0,0.1,0,0.1,0,0.2C516.3,464.8,516.3,464.8,516.2,464.7  M427.6,541.8c0.1,0.3,0.3,0.7,0.4,1.1c0,0,0,0-0.1,0C427.7,542.5,427.6,542.2,427.6,541.8 M422.1,539.2c0.1-0.1,0.2-0.2,0.3-0.4 c0,0.2,0,0.3,0,0.5C422.3,539.2,422.2,539.2,422.1,539.2 M414,449.4c0-0.1,0-0.2,0-0.3c0,0,0.1,0,0.1,0 C414.1,449.2,414.1,449.3,414,449.4 M604.1,515.8C604.1,515.8,604.1,515.8,604.1,515.8C604.1,515.8,604.1,515.9,604.1,515.8 C604.1,515.8,604.1,515.8,604.1,515.8 M578,569.1C578,569.1,578,569.1,578,569.1C578,569.1,578,569.1,578,569.1 C578,569.1,578,569.1,578,569.1 M438.7,448.3C438.7,448.3,438.7,448.3,438.7,448.3c0.1,0,0.1-0.1,0.2-0.1 C438.8,448.2,438.7,448.2,438.7,448.3 M610.3,525.1c0,0-0.1,0-0.1,0c0-0.1,0-0.1,0.1-0.2C610.3,525,610.3,525.1,610.3,525.1  M332.1,508.4C332.1,508.4,332,508.5,332.1,508.4C332,508.5,332.1,508.4,332.1,508.4 M295.9,471.8c-0.1,0.4-0.2,0.9-0.3,1.6 c-0.2-0.7-0.3-1.2-0.5-1.7C295.4,471.8,295.7,471.8,295.9,471.8 M298.8,472.6c-0.1,0-0.1-0.1-0.2-0.1c0,0,0.1,0,0.1,0 C298.8,472.5,298.8,472.5,298.8,472.6 M262.3,430.5c-0.1,0-0.1-0.1-0.1-0.1c0.1,0,0.1,0,0.2,0C262.3,430.5,262.3,430.5,262.3,430.5  M546,483.7c0.1,0,0.2-0.1,0.2,0.1c0,0,0,0.1,0,0.1C546.1,483.8,546.1,483.8,546,483.7 M607.8,541.8 C607.8,541.8,607.8,541.7,607.8,541.8C607.8,541.7,607.9,541.7,607.8,541.8C607.8,541.7,607.8,541.8,607.8,541.8 M440.1,529.6 L440.1,529.6C440.1,529.6,440.1,529.6,440.1,529.6C440.1,529.6,440.1,529.6,440.1,529.6 M405.1,531.1L405.1,531.1 C405.1,531.1,405.1,531.1,405.1,531.1L405.1,531.1z M268.5,430.2C268.5,430.2,268.5,430.2,268.5,430.2c-0.1,0-0.2-0.1-0.2-0.2 C268.4,430.1,268.4,430.1,268.5,430.2 M314,481.4c0,0.1,0,0.1,0.1,0.2c0,0.1,0,0.1-0.1,0.2C313.9,481.6,313.9,481.5,314,481.4  M467.3,462.2C467.3,462.2,467.3,462.3,467.3,462.2C467.2,462.2,467.2,462.2,467.3,462.2C467.3,462.2,467.3,462.2,467.3,462.2  M468.4,453.3L468.4,453.3C468.4,453.3,468.4,453.3,468.4,453.3C468.4,453.3,468.4,453.3,468.4,453.3 C468.4,453.2,468.4,453.2,468.4,453.3c0-0.1,0-0.1,0.1-0.1C468.4,453.2,468.4,453.2,468.4,453.3L468.4,453.3 M473,457.2 C473.2,457.3,473.1,457.5,473,457.2c-0.2-0.1-0.3-0.3-0.5-0.4c0.1,0,0.2,0,0.3,0C472.7,457,472.7,457.1,473,457.2 M413.7,480.7 c0,0-0.1-0.1-0.1-0.1c0.1,0,0.1,0,0.1,0C413.8,480.7,413.8,480.7,413.7,480.7 M494,529.4c0-0.1,0-0.1,0-0.2c0,0,0,0,0,0 c0,0,0.1,0,0.1,0C494.1,529.3,494.1,529.3,494,529.4 M369.7,479.3c-0.1,0-0.2,0-0.3,0c0,0,0-0.1,0-0.1 C369.5,479.2,369.6,479.3,369.7,479.3 M452.2,476.3L452.2,476.3C452.1,476.4,452.1,476.4,452.2,476.3 C452.1,476.4,452.1,476.4,452.2,476.3L452.2,476.3C452.2,476.4,452.2,476.3,452.2,476.3C452.2,476.3,452.2,476.3,452.2,476.3  M516.7,484.2c-0.6-0.4-1.1-0.9-0.6-2c0,0,0,0,0,0C516.2,482.6,516.4,483.3,516.7,484.2 M521.9,480.2c-0.1,0-0.1,0.1-0.2,0.1 C521.7,480.2,521.7,480.2,521.9,480.2C521.8,480.2,521.8,480.2,521.9,480.2C521.8,480.2,521.8,480.2,521.9,480.2 M472.8,510 c0,0.2,0,0.5,0,0.7c-0.2,0-0.4-0.1-0.6-0.1C472.4,510.4,472.6,510.2,472.8,510 M462.8,465.9C462.8,465.8,462.8,465.8,462.8,465.9 C462.8,465.8,462.8,465.8,462.8,465.9C462.8,465.8,462.8,465.8,462.8,465.9 M592,530.7c0.1,0,0.1-0.1,0.1-0.2c0,0.1,0,0.2,0,0.2 C592.1,530.7,592,530.7,592,530.7 M543.2,497.3c0.3-0.1,0.6-0.3,0.9-0.3c0.4-0.1,0.9,0.1,1.4,0.3 C544.9,497.2,544.2,497.2,543.2,497.3 M578.6,527.8C578.6,527.8,578.6,527.8,578.6,527.8C578.6,527.8,578.6,527.8,578.6,527.8 C578.6,527.8,578.6,527.8,578.6,527.8 M514.6,526.8c0,0,0.1,0,0.1,0C514.7,526.8,514.7,526.8,514.6,526.8 C514.6,526.8,514.6,526.8,514.6,526.8 M516,512.5C516,512.5,516,512.5,516,512.5C516,512.5,516,512.5,516,512.5 C516,512.5,516,512.5,516,512.5z M483.1,506.8C483.1,506.8,483.1,506.8,483.1,506.8C483.1,506.8,483.1,506.8,483.1,506.8 C483.1,506.8,483.1,506.8,483.1,506.8 M489.9,497.7C489.9,497.6,489.9,497.6,489.9,497.7C490,497.6,489.9,497.7,489.9,497.7 C489.9,497.7,489.9,497.7,489.9,497.7 M456.9,482.2c-0.2,0.1-0.3,0.3-0.4,0.4c0-0.1-0.1-0.1-0.1-0.2c0.2-0.1,0.3-0.2,0.5-0.3 C456.8,482.1,456.8,482.1,456.9,482.2 M506,509.6C506,509.6,506,509.6,506,509.6L506,509.6C506,509.6,506,509.6,506,509.6  M471.5,488.3C471.5,488.4,471.5,488.4,471.5,488.3C471.5,488.3,471.5,488.3,471.5,488.3C471.5,488.3,471.5,488.3,471.5,488.3  M483.8,493.3c0.2-0.2,0.3-0.1,0.4,0.4C484.1,493.5,483.9,493.4,483.8,493.3 M480.4,490.7c0.1,0.1,0.1,0.2,0.2,0.3l-0.3-0.2 C480.3,490.8,480.3,490.8,480.4,490.7 M587.1,534.9c-0.1-0.2-0.2-0.4-0.3-0.6c0.3,0.3,0.6,0.6,1.1,0.9 C587.4,535.1,587.1,535.1,587.1,534.9 M374,521c0.3-0.4,0.6-0.3,0.7,0C374.5,521,374.3,520.9,374,521 M618.2,543 C618.2,543,618.2,543,618.2,543C618.2,543,618.2,543,618.2,543 M621.3,541.8c0,0.2,0.1,0.4,0.1,0.6c-0.1-0.1-0.2-0.3-0.4-0.5 C621.1,541.9,621.2,541.8,621.3,541.8 M516.7,431.2c0.3-0.2,0.6-0.2,0.9-0.1c-0.1,0.1-0.3,0.1-0.4,0.1c0,0,0,0,0,0 C517,431.2,516.8,431.2,516.7,431.2 M489.2,428.6C489.2,428.6,489.2,428.6,489.2,428.6C489.2,428.6,489.2,428.6,489.2,428.6 C489.2,428.6,489.2,428.6,489.2,428.6 M459.6,418.6L459.6,418.6c0,0.1,0.1,0.1,0.1,0.2C459.7,418.7,459.7,418.6,459.6,418.6  M530.1,428.5C530,428.5,530,428.5,530.1,428.5C530,428.5,530,428.4,530.1,428.5C530,428.5,530,428.5,530.1,428.5 M401.4,453 c0.4,1,0.7,1.9,0.7,2.9c0,0,0,0.1,0,0.1C401.9,455,401.6,454,401.4,453 M579.3,567.4C579.3,567.4,579.3,567.4,579.3,567.4 C579.3,567.4,579.3,567.4,579.3,567.4C579.3,567.4,579.3,567.4,579.3,567.4 M527.5,444.6c-0.2-0.1-0.3-0.2-0.5-0.3 C527.2,444.3,527.4,444.4,527.5,444.6 M353.1,363.7c-0.1,0-0.2,0-0.2,0c0,0-0.1,0-0.1-0.1C352.8,363.6,352.9,363.7,353.1,363.7  M251.4,373.9c0.1,0.3,0,0.5-0.2,0.8C251.3,374.4,251.3,374.1,251.4,373.9 M246.6,360.7c-0.1-0.2-0.2-0.4-0.3-0.6 C246.5,360.2,246.5,360.4,246.6,360.7 M341,233.6L341,233.6C341,233.6,341,233.6,341,233.6L341,233.6z M351.9,201.7c0,0,0,0.1,0,0.1 c-0.1-0.1-0.2-0.1-0.3-0.2C351.7,201.6,351.8,201.7,351.9,201.7 M358.5,199.1c-0.1,0-0.1-0.1-0.2-0.1 C358.4,199,358.5,199.1,358.5,199.1C358.5,199.1,358.5,199.1,358.5,199.1 M379.9,180.9c-0.1,0.1-0.2,0.2-0.3,0.3 C379.5,181,379.7,180.9,379.9,180.9 M467.9,159.6c0.2,0,0.3,0,0.5,0.1C468.1,159.8,468,159.8,467.9,159.6 M440.5,161.6 c-0.2-0.1-0.2-0.3,0-0.4C440.4,161.4,440.5,161.5,440.5,161.6 M471.9,202.8c-0.1,0-0.1,0-0.1,0c0-0.1,0.1-0.1,0.1-0.2 C471.8,202.6,471.8,202.7,471.9,202.8 M455.8,245L455.8,245C455.8,245,455.8,245,455.8,245 M411.7,279.1c0,0-0.1-0.1-0.1-0.1 C411.6,279.1,411.7,279.1,411.7,279.1C411.7,279.1,411.7,279.1,411.7,279.1 M356.6,287.5c-0.1,0-0.2,0-0.3-0.1c0-0.1,0-0.2,0-0.3 C356.4,287.3,356.5,287.4,356.6,287.5 M295.2,305.1C295.2,305.1,295.1,305.1,295.2,305.1c-0.1-0.1-0.1-0.2,0-0.2 C295.2,305,295.2,305,295.2,305.1 M301.2,302.1C301.3,302.1,301.3,302.1,301.2,302.1C301.3,302.1,301.3,302.1,301.2,302.1 C301.3,302.1,301.3,302.1,301.2,302.1 M299.9,300.1c-0.1-0.2-0.1-0.6-0.2-0.8c0.2,0,0.4,0,0.6-0.1 C300.1,299.6,300,299.9,299.9,300.1 M347.4,298.9c0,0,0.1-0.1,0.2,0C347.5,298.8,347.4,298.9,347.4,298.9 M414.6,273.8 c0,0-0.1-0.1-0.1-0.1c0,0-0.1-0.1-0.1-0.1c0.1,0,0.2,0.1,0.4,0.1c0.3,0.1,0.5,0.3,0.6,0.6C415.1,274.1,414.9,274,414.6,273.8 C414.7,273.8,414.7,273.8,414.6,273.8 M433.1,171.3C433.1,171.3,433.1,171.3,433.1,171.3C433.1,171.3,433.1,171.3,433.1,171.3 L433.1,171.3z M462.3,198c-0.1-0.1-0.1-0.2-0.2-0.3c0.1,0,0.2,0.1,0.3,0.1c0,0-0.1,0-0.1,0C462.3,197.9,462.3,197.9,462.3,198  M800.2,532.1c0.1-0.2,0.2-0.3,0.3-0.4C800.5,531.8,800.5,532,800.2,532.1 M851.7,524.3c0.1,0,0.1,0,0.2,0 C851.8,524.4,851.7,524.4,851.7,524.3 M658,449.7c0.2-0.2,0.3-0.3,0.5-0.5C658.3,449.4,658.2,449.6,658,449.7 M658.7,448.7 L658.7,448.7C658.7,448.7,658.7,448.7,658.7,448.7 M757.2,444.7c-0.1-0.1,0-0.1,0-0.2C757.2,444.6,757.2,444.6,757.2,444.7  M833.1,527.5c0.1,0,0.1-0.1,0.2-0.1c0,0.1,0,0.1-0.1,0.2C833.2,527.6,833.1,527.5,833.1,527.5 M651.8,467.7 C651.8,467.7,651.8,467.7,651.8,467.7c0.2,0,0.4,0,0.6,0c-0.1,0.1-0.1,0.2-0.1,0.3C652.1,467.9,652.1,467.8,651.8,467.7  M727.5,472.1C727.5,472.1,727.4,472.1,727.5,472.1C727.4,472.1,727.4,472,727.5,472.1C727.5,472,727.5,472.1,727.5,472.1  M821.1,525.3c-0.3-0.1-0.7-0.2-1.1-0.4C820.4,524.9,820.8,525,821.1,525.3 M781.4,517.5C781.4,517.5,781.5,517.5,781.4,517.5 C781.5,517.5,781.5,517.5,781.4,517.5C781.4,517.5,781.4,517.5,781.4,517.5 M722.8,511.8c0,0.1,0,0.2,0.1,0.3c0,0-0.1,0-0.1,0 C722.8,511.9,722.8,511.8,722.8,511.8 M718.9,519.3c0.1,0,0.2,0.1,0.3,0.2c-0.1,0.1-0.2,0.2-0.3,0.3 C718.8,519.6,718.9,519.5,718.9,519.3 M712.8,512.5C712.8,512.5,712.8,512.5,712.8,512.5c-0.1,0-0.1,0-0.2,0c0-0.1,0.1-0.2,0.1-0.3 C712.8,512.3,712.8,512.4,712.8,512.5 M767.1,416.6L767.1,416.6L767.1,416.6C767.1,416.6,767.1,416.6,767.1,416.6 M800.9,490.2 c0,0,0.1-0.1,0.1-0.1c0,0.1,0,0.1,0,0.2C801,490.3,801,490.3,800.9,490.2 M771.2,507C771.2,507,771.2,507,771.2,507 C771.2,507,771.2,507,771.2,507C771.2,507,771.2,507,771.2,507 M755.4,525.3c-0.1,0-0.1,0-0.2,0 C755.3,525.3,755.3,525.3,755.4,525.3C755.4,525.3,755.4,525.3,755.4,525.3 M773.7,444.1c-0.2-0.2-0.4-0.3-0.6-0.4 c0.1-0.1,0.2-0.3,0.2-0.4C773.4,443.5,773.6,443.7,773.7,444.1 M825,455.8L825,455.8c0,0.1,0,0.1-0.1,0.1 C825,455.9,825,455.8,825,455.8 M768.4,502.3C768.4,502.3,768.4,502.3,768.4,502.3C768.5,502.3,768.5,502.3,768.4,502.3L768.4,502.3 z M762.9,502C762.9,502,762.8,501.9,762.9,502c0,0,0.1,0.1,0.2,0.2C763,502.1,763,502,762.9,502 M701.3,483c-0.1,0-0.1,0-0.1-0.1 C701.2,483,701.3,483,701.3,483 M717.6,476.5c0.2-0.1,0.4-0.1,0.7-0.3C718.1,476.7,717.9,476.7,717.6,476.5 M750.2,477.3 c0.1-0.2,0-0.3,0.1-0.4C750.3,477,750.3,477.1,750.2,477.3 M754.8,477.5c-0.3-0.2-0.6-0.4-0.8-0.7c0.2-0.2,0.5-0.5,0.7-0.8 C754.8,476.5,754.8,476.9,754.8,477.5 M745.7,462l-0.5-0.2c0.2-0.2,0.4-0.3,0.5-0.5C745.7,461.6,745.7,461.8,745.7,462L745.7,462z  M827.8,444.9c0,0,0.1-0.1,0.1-0.1c0,0,0,0.1,0,0.1C827.9,444.9,827.9,444.9,827.8,444.9 M773.5,424.2 C773.5,424.2,773.5,424.2,773.5,424.2c-0.2-0.3-0.3-0.6-0.4-0.9C773.2,423.6,773.4,423.9,773.5,424.2 M819.1,433.2 c0.4,0.3,0.6,0.8,0.9,1.3c-0.5-0.5-0.9-1-1.4-1.5C818.8,433.1,818.9,433.1,819.1,433.2 M780.4,519.9c-0.2-0.4-0.3-0.8-0.5-1 C780.7,519.1,781.3,519.3,780.4,519.9 M827.9,524c0.1,0,0.3-0.1,0.4-0.1c0,0,0.1,0,0.1,0C828.2,523.9,828,524,827.9,524  M764.6,444.6c0-0.1,0-0.1,0.1-0.2c0.1,0.2,0.1,0.3,0.2,0.5C764.7,444.8,764.7,444.7,764.6,444.6 C764.5,444.6,764.6,444.6,764.6,444.6 M518.2,265.9c0,0.1,0,0.1,0,0.2C518.1,265.9,518.2,265.9,518.2,265.9 M623,211.6 C623,211.6,623,211.6,623,211.6c-0.1,0-0.1,0.1-0.2,0.1c0-0.2,0-0.3,0-0.5C622.9,211.4,622.9,211.4,623,211.6 M711.3,267.8 C711.3,267.8,711.3,267.8,711.3,267.8C711.3,267.8,711.3,267.7,711.3,267.8c0.1,0,0.1,0,0.1,0C711.4,267.8,711.3,267.8,711.3,267.8  M575.7,238.5C575.7,238.5,575.7,238.5,575.7,238.5c-0.2-0.4-0.4-0.8-0.7-1.2C575.3,237.5,575.6,237.9,575.7,238.5 M717.3,213.4 c-0.2,0-0.4,0-0.6-0.1C716.8,213.3,717.1,213.3,717.3,213.4 M705.4,249.6c0.1,0.1,0.1,0.1,0.2,0.1c-0.1,0.1-0.2,0.1-0.3,0.2 C705.3,249.9,705.4,249.7,705.4,249.6 M557.7,248.9C557.7,248.9,557.7,248.9,557.7,248.9C557.7,248.9,557.7,248.9,557.7,248.9 C557.7,248.9,557.7,248.9,557.7,248.9 M607.1,225.6C607.1,225.6,607.1,225.7,607.1,225.6C607.1,225.7,607.1,225.7,607.1,225.6 C607.1,225.6,607.1,225.6,607.1,225.6 M747.4,223.7c-0.1-0.2-0.2-0.3-0.2-0.5C747.2,223.4,747.3,223.5,747.4,223.7 M704.8,239.6 c-0.1,0-0.1,0-0.2,0C704.7,239.6,704.7,239.6,704.8,239.6C704.8,239.6,704.8,239.6,704.8,239.6 M710.8,264.5c0,0-0.2,0.1-0.3,0.1 c0.1-0.1,0.3-0.2,0.4-0.3C710.8,264.3,710.8,264.4,710.8,264.5 M563.8,237.3c0-0.1,0-0.2,0-0.3C563.8,237.1,563.8,237.2,563.8,237.3  M580,239.5C580,239.5,580,239.5,580,239.5C580,239.5,580,239.5,580,239.5C580,239.5,579.9,239.5,580,239.5 C580,239.5,580,239.5,580,239.5 M621.4,262.5C621.4,262.5,621.4,262.5,621.4,262.5c0.1,0.1,0.1,0.2,0,0.3 C621.4,262.7,621.4,262.6,621.4,262.5 M634.9,259.1C635,259.1,635,259.1,634.9,259.1C635,259.1,635,259.2,634.9,259.1 C635,259.2,635,259.2,634.9,259.1 M710.2,260.6C710.2,260.6,710.2,260.7,710.2,260.6C710.2,260.6,710.2,260.6,710.2,260.6 L710.2,260.6z M736,234.8c0,0.1,0.1,0.2,0.1,0.3c-0.2-0.2-0.3-0.4-0.4-0.7C735.8,234.6,735.9,234.7,736,234.8 M619.2,225.4 C619.2,225.5,619.2,225.5,619.2,225.4C619.2,225.5,619.2,225.5,619.2,225.4C619.2,225.5,619.2,225.5,619.2,225.4 M505.7,278.9 c0.4-0.2,0.8-0.4,1.2-0.6C506.6,278.6,506.2,278.8,505.7,278.9 M610.2,308.6c0,0.1,0,0.2-0.1,0.2c0-0.1,0-0.2-0.1-0.3 C610.1,308.6,610.2,308.6,610.2,308.6 M162.1,593.6c-0.4,1.1-0.5,1.2,0.8,1.7c5,2,9.9,4.1,15,5.9c3.8,1.4,7.7,2.5,11.7,3.5 c1.9,0.5,4.3,0.1,5.8,1c4.6,2.9,9.8,2.9,14.8,3.8c6.1,1.2,12.2,2.3,18.3,3.5c3.2,0.5,6.4,0.8,9.5,1.5c2.9,0.7,6.1-0.6,8.8,1.3 c0.1,0.1,0.4,0.1,0.5,0.1c1.2,0,2.6,0.4,3-1.4c0.9,0.7,1.7,1.4,2.6,2.1c0.1,0,0.2,0,0.3,0c1.7,0.2,3.5,0.5,5.2,0.7 c8.6,0.9,17.3,1.7,25.9,2.5c4.7,0.4,9.4,1,14.2,1.2c3.9,0.2,7.8-0.2,11.7,0.2c4.6,0.4,9.1,1.3,13.6,2c2.6,0.5,5.3,1,7.9,1.5 c0.5,0.1,1.2,0.3,1.6,0c3.3-2,6.3-0.6,9.3,0.7c0.8,0.3,1.7,0.4,2.5,0.7c0.8,0.2,1.6,0.4,2.4,0.8c1.3,0.6,2.5,1.5,3.9,1.9 c4.2,1.2,8.4,2.3,12.7,3.4c4.1,1,8.3,2,12.5,2.8c1,0.2,2.2-0.4,3.3-0.7c-0.3-1.1-0.3-2.4-1-3.3c-4.9-6.5-9.9-13-15-19.4 c-4-5-8-9.9-12.2-14.7c-5.5-6.1-11.2-12.1-16.9-18.1c-1.6-1.6-3.3-3.2-4.9-4.8c-9-8.7-18.1-17.5-27.1-26.2 c-14.7-12.5-29.4-25.1-44.1-37.6c-4.6-3.4-9.1-6.8-13.7-10.2c-1-0.5-1.9-1.1-2.9-1.6c-2.3-1.7-4.6-3.3-6.9-5 c-8.3-5.9-17.4-10.1-27.3-12.5c-0.8-0.2-1.5-0.4-2.3-0.6c-0.6-0.2-1.2-0.5-1.8-0.6c-9.2-2-18.4-4.1-27.6-5.9c-6-1.2-12.1-2.1-18.1-3 c-0.7-0.1-1.6,0.5-2.4,0.7c-0.9-0.4-1.8-1-2.7-1.2c-6.3-1.3-12.6-2.6-18.9-3.8c-2.6-0.6-5.1-1.1-7.7-1.7c-0.2-0.1-0.3-0.2-0.5-0.2 c-10.8-2-21.5-1.2-32,1.3c-11.7,2.8-23.2,6.6-34.8,9.9c-1.5,0.5-3,0.9-4.4,1.4c-1.8,0.8-3.7,1.5-5.5,2.3c0.6-0.7,1.1-1.6,1.9-2.2 c11.2-8.4,22.5-16.8,33.7-25.2c7.2-5.5,14.3-11,21.5-16.4c3.6-2.3,7.2-4.6,10.8-6.9c8.9-6,17.8-12,26.8-17.9 c6.4-4.2,13-8.3,19.4-12.4c2,0.5,4.1,0.7,5.8,1.6c4.3,2.4,8.4,5.1,12.6,7.7c6.2,5,12.4,10.1,18.6,15.1c0.8,0.7,1.5,1.4,2.3,2 c8.3,6.9,16.5,13.7,24.8,20.6c6.6,5.5,13.3,10.9,19.9,16.4c10.5,9,20.9,17.9,31.4,26.9c8,7.4,16,14.8,24,22.2 c6.5,4.3,12.7,9,19.6,12.7c5.5,3,10.8,7.1,17.6,7c0.2,0,0.3,0.4,0.6,0.6c1.1,0.8,2.2,1.5,3.3,2.3c2.5,1,5,2,7.5,2.9 c0.6,0.2,1.2,0.5,1.8,0.7c0.2,0.1,0.5,0.3,0.7,0.4c17.9,6.3,35.9,12.1,54.8,15c8.3,1.3,16.8,1.7,25.1,2.6c4.9,0.3,9.7,0.6,14.6,0.8 c9.5,0.4,19.1,0.8,28.6,1.2c7.4,0.3,14.7,0.6,22.1,1c1.6,0.1,3.1,0.8,4.7,1.2c2.7,1.4,5.4,2.9,8.1,4.2c3.8,1.8,7.7,3.5,11.5,5.3 c4.5,1.8,9,3.8,13.7,5.3c8.3,2.7,16.5,5.5,25.4,5.7c5.9,0.1,11.9,0.7,17.8,1.2c1.4,0.1,1.8-0.1,1.3-1.5c-0.1-0.4,0.4-0.9,0.5-1.4 c0.4,0.3,1.2,0.6,1.3,0.9c0.1,2,1.5,2.2,2.9,2c1.3-0.2,2.6-0.9,3.9-0.9c3.2,0.1,6.5,0.5,9.7,0.7l5.8,0c3.5,0.1,7,0.1,10.6,0.1 c6.3,0.5,12.6,0.9,18.8,1.4c6.4,1.2,12.8,2.3,19.1,3.6c4.3,0.9,8.4,2.3,12.7,3c2.2,0.4,4.6,0,6.8-0.6c1.9-0.5,2.4-2.6,1.4-4.3 c-0.7-1.2-1.5-2.3-2.4-3.4c-5.8-7.1-11.6-14.2-17.5-21.2c-3.1-4.5-6.2-8.9-9.3-13.4c-1.3-1.8-2.5-3.7-3.8-5.5 c-0.6-0.9-1.1-1.9-1.7-2.9c-1.6-2.7-3.2-5.5-4.8-8.2c-6-11-11.9-22.1-18.2-33c-3.4-5.9-7.4-11.6-11.6-17 c-6.5-8.3-13.5-16.3-20.2-24.4c-0.2-0.3-0.3-0.7-0.6-0.9c-7.3-7.3-14.4-14.8-22-21.8c-7.2-6.6-14.9-12.6-22.4-18.9 c-2.5-2-5-4.1-7.6-6c-6.2-4.5-12.3-9.3-19.5-12.1c-4.8-1.9-9.7-3.6-14.6-5.4c-15.7-4.8-31.6-8.3-47.8-10.5c-8.6-1.2-17.3-1.7-26-2.5 c-3.8,0-7.6,0-11.4,0c-0.7-0.1-1.4-0.3-2.2-0.4c-3.7-0.7-7.4-1.3-11.1-2c-2.5-0.7-5.1-1.4-7.6-2.1c-0.8-0.4-1.7-0.7-2.5-1.1 c-0.5-0.2-1-0.5-2-1c14-0.7,27.4-1.4,40.8-2.1c1.2,0,2.4-0.2,3.6-0.1c6.7,0.5,13.3,0.9,20,1.5c9.5,0.9,19.1,1.7,28.5,2.9 c8.7,1.1,17.4,2.7,26.1,4c5.8,1.3,11.6,2.4,17.3,3.8c9.7,2.3,19.4,4.8,29.1,7.2c8.8,2.4,17.6,4.9,26.6,7c4.5,1.1,8.2,2.6,9.9,7.2 c0.5,0.8,0.9,1.6,1.4,2.4c11.6,16.8,23.1,33.7,34.9,50.4c7.5,10.6,15,21.2,24.6,30.1c13.3,12.5,27.5,23.8,44.7,30.7 c2,1.2,4,2.5,6,3.7c0.1,0.1,0.2,0.4,0.3,0.4c9.9,4.2,19.9,8.3,29.8,12.5c0.3,0.1,0.7-0.1,1.1-0.2c-0.4-1.4-0.5-2,0.6-0.3 c0.4,0.6,1.2,1.2,1.9,1.5c11.9,4,23.9,7,36.5,7.7c2.1-0.1,4.2-0.2,6.2-0.4c6-0.5,11.9-0.8,17.9-1.5c2.2-0.2,4.4-1.7,6.6-1.6 c2.8,0.1,5.3-1,7-2.3c2.5-2,4.7-2.3,7.5-1.9c0.9,0.1,1.9-0.2,2.8-0.3c1.2-0.1,2.3,0,3.5,0c0.6,0,1.5,0.2,1.8-0.1 c2.1-2,4.5-2.2,7.1-1.5c0.6,0.2,1.7,0.8,1.9,0.6c1.7-1.7,3.8-0.9,5.8-1.2c5.9-1,11.7-2.1,17.5-3.3c13.2-2.7,26.4-4.6,39.8-5.6 c1.7-0.1,3.4-0.6,5.1-0.9c2.4-0.3,4.7-0.6,7.1-1c1.1,0.1,2.3-0.5,3.4-0.5c5.3-0.2,10.7-0.3,16-0.6c3.7-0.2,7.5-0.5,11.2-0.9 c2-0.2,4.1-0.8,6.1-1.2c1-0.1,2-0.1,3-0.4c1.3-0.4,2.6-0.9,3.9-1.3c-0.8-1.4-1.4-3-2.5-4.1c-1.7-1.6-3.9-2.8-5.7-4.3 c-5.3-4.4-10.6-8.9-15.8-13.4c-2.8-2.4-5.6-4.8-8.5-7.1c-11.9-9.3-23.9-18.6-35.8-27.9l-9-6.3c-6.6-4.4-13.2-8.8-19.9-13.2 c-6.1-3.7-12.2-7.5-18.3-11.2c-2.9-1.6-5.7-3.2-8.6-4.8c-0.1-0.1-0.2-0.2-0.3-0.3c-4.3-2.2-8.6-4.5-13-6.7c-2.5-1.3-5.1-2.6-7.6-3.9 c-10.9-5-22-9.2-33.5-12.2c-3.1-0.9-6.3-1.9-9.4-2.8c-6.7-1.5-13.4-3.1-20.1-4.6c-14.7-3.3-29.6-4.9-44.6-5.4 c-1.9-0.1-3.9,0.1-5.8,0.1c-2.8,0-5.7-0.2-8.5-0.1c-10.3,0.6-20.5,1.5-30.8,1.8c-13.3,0.5-26.7,0.9-40,0.7 c-9.4-0.1-18.9-1.4-28.3-2.1c-0.9-0.1-1.8-0.2-2.7-0.4c-12.4-3-24.8-6.1-37.3-9.1c-4.4-1-8.8-1.9-13.2-2.8c-0.8-0.2-1.6-0.6-2.4-0.7 c-11.2-2.4-22.3-4.7-33.5-7c-5.6-1.2-11.2-2.5-16.9-3.3c-9.9-1.4-19.9-2.5-29.8-3.5c-7.1-0.7-14.2-1-21.3-1.5 c-4.5-0.4-9.1-0.8-13.6-1.2c0-0.2-0.1-0.4-0.1-0.7c3.9-0.9,7.7-1.8,11.6-2.7c4.1-0.9,8.2-1.6,12.2-2.7c13.2-3.6,26.6-4.6,40.2-3.3 c9.7,0.9,19.4,1.1,29.2,1.5c12.7,0.6,25.4,0.4,38-1.6c0.9-0.1,1.8,0,2.7-0.2c12-2.6,24.1-5,36-7.8c10.3-2.5,20.5-5.4,30.8-8.1 c0.4-0.1,0.9-0.1,1.3-0.2c9.1-3.6,18.3-7,27.3-10.8c7.6-3.2,14.9-6.9,22.4-10.6c4.3-2.1,8.4-4.3,12.6-6.6 c8.7-4.7,17.5-9.5,26.2-14.3c2.3-1.3,4.6-2.6,6.9-3.8c6.1-3.4,12.3-6.7,18.3-10.4c13.7-8.3,27.2-16.8,40.8-25.2 c3.4-2.1,6.8-4.3,10.3-6.5c0.7-0.5,1.5-0.9,2.2-1.4c1.1-0.7,2.3-1.3,3.4-2l2.4-1.4c4.3-2.3,8.7-4.5,12.9-7c3.9-2.3,3.8-4.7-0.1-6.9 c-1.4-0.8-3-1.4-4.5-2c-7.7-2.2-15.4-4.5-23.2-6.5c-3.7-0.9-7.7-1-11.5-1.7c-2-0.3-4-1-6-1.6c-5.9-0.9-11.7-2-17.7-2.7 c-3.3-0.4-6.7-0.3-10.1-0.5c-0.5-0.1-1-0.3-1.5-0.4c-5.6-0.4-11.1-0.9-16.7-1.3c-3.1-0.2-6.2,0.1-9.3,0c-2.6-0.1-5.2-0.5-7.8-0.8 c-2.9-0.2-5.8-0.5-8.7-0.6c-10.7-0.6-21.5-1-32.2-1.7c-8.8-0.6-17.6-1.4-26.4-2.3c-5.5-0.6-10.9,0.6-16.1,2 c-5.3,1.5-10.4,3.6-15.5,5.8c-5.1,2.2-10,4.8-15,7.3l-28.4,16.6l0,0c-1.7,1.1-3.5,2.1-5.2,3.2c-6.4,4.5-12.8,9-19.1,13.7 c-3.9,2.8-7.5,5.9-11.2,8.9c-0.9,0.6-1.8,1.1-2.5,1.8c-3.8,3.7-7.7,7.4-11.4,11.3c-4.8,5.2-9.3,10.5-14,15.8 c-3.1,3.5-6.2,6.9-9.2,10.3c-0.4,0.4-0.9,0.6-1.3,1c-9.9,10.6-21.3,19.6-33.2,27.9c-6,4.2-11.8,8.6-17.7,12.9 c-0.3,0.2-0.5,0.4-0.8,0.5c-1.5,0.8-2.9,1.6-4.4,2.4c-4.2,2.6-8.4,5.1-12.5,7.9c-3.1,2.1-6.1,3.4-10,3.4c-5.7-0.1-11.4,0.5-17.2,0.7 c-2.2,0.1-4.4-0.1-6.6-0.1c-1.8,0-3.6,0.1-5.4,0.2c-2.3-0.1-4.6-0.3-6.8-0.3c-10,0-20,0-30,0.2c-8.6,0.1-17.2,0.5-25.8,0.7 c-1.6,0.1-3.2,0-4.7,0.2c-15,1.7-30.1,3.5-45.1,5.3c3.6-2.2,7.2-4.4,10.8-6.6c1.9-1.1,3.9-2.2,5.8-3.3c5.5-3.3,10.9-6.7,16.3-10.1 c3-1.9,6.1-3.7,9.1-5.6c0.1,0,0.1-0.1,0.3-0.2c2.8-1.3,5.7-2.7,8.6-3.9c9-3.9,18-7.7,27-11.6c0.7-0.1,1.5-0.4,1.9-0.9 c7.4-3.3,14.8-6.7,22.2-10c3.1-1.4,6.2-2.8,9.2-4.3c8.5-4.2,17-8.6,25.5-12.9c2.3-1.4,4.5-2.9,6.8-4.2c1.2-0.7,2.7-1.1,4-1.6 c12.2-6.9,24.3-14,35.1-23.1c0.3-0.2,0.6-0.4,0.9-0.6c9-7.6,17.2-15.9,23.5-26c5-8.1,8.9-16.8,11.6-26c0.4-0.8,0.8-1.7,1.1-2.5 c2.8-7,6.2-13.6,11.6-19c0.8-0.8,2.1-1.4,2.2-2.3c0.6-3.1,2.8-3.8,5.3-4.5c4.6-3.3,9.3-6.5,13.7-10c5-4,9.9-8,14.4-12.6 c2.4-2.5,4-6,5.3-9.3c1.2-3-0.8-4.7-4-4.3c-3.6,0.5-7.3,0.6-10.9,0.9c-3.6,0.3-7.3,0.5-10.8,1.1c-10.9,1.8-21.7,3.4-32.8,2.5 c-9.3-0.8-18.6-1.6-28-2.4c-4.9-0.4-9.8-0.6-14.6-1.3c-5-0.7-9.9,1.3-15,0.1c-2-0.5-4.4,0.2-6.6,0.4c-0.4,0-0.7-0.1-1.1,0 c-9.3,2.4-17.4,7.1-25.4,12.2c-10.2,6.3-19,14.3-27.7,22.5c-12,11.3-23.1,23.6-33,36.7c-3.2,4.3-7.4,8.1-8.5,13.8 c0,0.3-0.4,0.6-0.7,0.8c-1.2,1.4-2.4,2.8-3.5,4.2c-0.9,1.6-1.7,3.1-2.6,4.7c-5.5,10.6-11,21.1-16.5,31.7 c-4.4,8.1-8.7,16.2-13.2,24.3c-5.4,9.8-10.8,19.5-16.2,29.2c-2.9,5-5.8,10-8.7,15c-3.5,5.1-7.1,10.2-10.6,15.2 c-3.7,2.5-7.4,4.9-11.1,7.4c-0.8,0.4-1.7,0.9-2.5,1.3c-0.2,0.1-0.3,0.2-0.5,0.2c-6.7,2.4-13.5,4.9-20.2,7.3 c-10.5,1.5-20.8,3.5-30.6,7.8l1.6,0c-0.5,0-1.1-0.1-1.6,0l-9.7,4.3c-0.5,0.1-1.1,0.2-1.6,0.4c-8.9,4.3-17.8,8.5-26.7,12.8 c-0.8,0.2-1.6,0.4-2.6,0.7c1.8-2.1,3.4-4.1,5.1-6.1c1.4-1.7,2.8-3.3,4.3-5c3.1-4.2,7-8.1,9.2-12.8c4-8.3,7.3-17,10.3-25.8 c6-17.8,11.3-35.9,19.4-53c2.4-4.3,4.8-8.5,7.2-12.8c4.4-7.7,8.8-15.4,13.2-23.1c2.8-6.3,5.9-12.6,8.4-19.1 c4.9-12.6,9.9-25.3,14.2-38.1c3.7-10.8,6.6-21.9,9.8-32.9c0.3-1,0.6-2,0.7-3c0.3-2.3-0.8-3.9-3.1-3.6c-4.8,0.6-9.5,1.6-14.2,2.4 c-6.3,1.6-12.6,3.1-18.9,4.7c-1.2,0.3-2.4,0.4-3.5,0.8c-9.1,3.4-18.3,6.4-27,10.6c-7.9,3.8-15.2,8.8-22.7,13.3 c-1.2,0.9-2.4,1.8-3.6,2.8l-3.2,2.3c-3.4,2.9-6.8,5.7-10,8.7c-4.7,4.5-9.1,9.1-13.7,13.7l-0.8,0.7c-4,4.4-8,8.9-10.4,14.4 c-2.3,5.2-5,10.3-6.7,15.8c-2.6,7.9-4.8,16-6.6,24.1c-1.4,6-2,12.2-3,18.3c-0.6,7.5-1.3,14.9-1.9,22.4c-0.1,1.5-0.3,2.9-0.3,4.4 c-0.3,11.8,0.1,23.5,2.4,35.1c0.4,1.9,1.4,3.6,2.2,5.4c-0.2,0.4-0.7,0.8-0.6,1.1c1.1,5,1.9,10.1,5.1,14.3c0.1,1.1-0.1,2.3,0.3,3.2 c2.1,5,4.4,9.9,6.7,14.9l3.3,5.8c0.8,1.5,1.7,2.9,2.6,4.3c2.3,4.6,2.3,4.6-0.9,7.2l-18.4,14c-5.3,3.9-10.5,7.9-15.8,11.7 c-5.5,4-11.1,7.7-16.5,11.9c-8.4,6.4-16.7,12.9-24.9,19.6c-4.8,3.9-9.4,8.1-14.1,12.1c-1.1,1-2.3,1.9-3.4,2.9 c-2.8,2.8-5.5,5.6-8.3,8.4c-3,3.1-5,6.6-4.3,11.1c0.6,1,1.1,1.9,1.7,2.9c0.4,0.3,0.8,0.5,1.1,0.8c2.9,2.3,3.4,2.3,5.9-0.3 c3.7-3.8,7.3-7.8,11-11.7l5,4.2c3.8,3.9,7.5,8,11.4,11.8c5.6,5.5,11.5,10.8,17.2,16.1c3.3,3.1,6.6,6.1,10,9.1c0.8,0.7,1.7,1.3,2.6,2 c3.2,2.5,6.3,5.1,9.5,7.5c0.6,0.5,1.6,0.5,2.4,0.8c2.6,1.9,5.3,3.7,7.9,5.6c4.1,2.6,8.1,5.2,12.2,7.9c13,6.6,26,13.3,39,19.9 c6.4,2.9,12.8,5.8,19.3,8.7c0.1-0.2,0.3-0.4,0.4-0.7c-0.6-0.8-1.3-1.6-2.4-2.9c1.8,0.6,3,0.9,4,1.5 C161.9,592,162.3,593.1,162.1,593.6"></path></svg>