<svg xmlns="http://www.w3.org/2000/svg" xmlns:xlink="http://www.w3.org/1999/xlink" id="Layer_1" x="0px" y="0px" viewBox="0 0 278 56" style="enable-background:new 0 0 278 56;" xml:space="preserve"><style type="text/css">	.st0{fill-rule:evenodd;clip-rule:evenodd;fill:#586D43;}	.st1{fill:#2C3722;}</style><path class="st0" d="M28,0C12.5,0,0,12.5,0,28c0,15.5,12.5,28,28,28s28-12.5,28-28C56,12.5,43.5,0,28,0z M26.1,51.1 C26,52.1,6,49.6,5.6,29.7C15.6,29.3,27.3,39.9,26.1,51.1z M27.8,38.7c-8.5-7.2-7.2-22.8,0.2-29.3C41.3,23.9,28.5,39.3,27.8,38.7z  M30,51c-1.2-11.1,10.5-21.6,20.4-21.3C50,49.5,30.1,52,30,51z"></path><g>	<path class="st1" d="M82.9,42.3c-1.5,0-2.8-0.1-3.9-0.4s-2.3-0.7-3.5-1.2l-0.3-0.5c0.1-0.9,0.2-1.7,0.3-2.4s0.2-1.5,0.2-2.5  c0.1-0.9,0.1-1.9,0.1-2.9l2.7-0.2c0,1.9,0.1,3.4,0.4,4.4c0.3,1,0.8,1.7,1.6,2.1c0.8,0.4,1.9,0.6,3.4,0.6c1.6,0,3-0.4,4-1.2  s1.5-1.8,1.5-3.1c0-0.9-0.3-1.7-1-2.4c-0.7-0.7-1.5-1.3-2.5-1.8c-1-0.6-2.1-1.1-3.2-1.7c-1.2-0.6-2.3-1.3-3.5-2  c-1.1-0.7-2-1.6-2.7-2.5c-0.7-1-1.1-2.1-1.1-3.5c0-1.7,0.5-3.2,1.4-4.4c1-1.3,2.3-2.3,3.9-3.1c1.7-0.7,3.6-1.1,5.7-1.1  c1.4,0,2.6,0.1,3.7,0.3c1.1,0.2,2.2,0.5,3.5,0.9l0.2,0.4c-0.3,1.4-0.5,2.6-0.6,3.8c-0.2,1.2-0.3,2.4-0.4,3.8L90.6,22l-0.4-0.3  c0.1-0.7,0.1-1.4,0.1-2c0-1.5-0.4-2.5-1.1-3.1c-0.7-0.6-2-0.9-3.8-0.9c-1.5,0-2.7,0.4-3.6,1.1c-1,0.7-1.4,1.7-1.4,2.8  c0,0.8,0.3,1.6,0.9,2.2c0.6,0.6,1.3,1.2,2.2,1.8c0.9,0.5,1.9,1.1,2.9,1.6c1.3,0.6,2.6,1.3,3.8,2.1c1.3,0.7,2.3,1.6,3.1,2.6  c0.8,1,1.2,2.2,1.2,3.6c0,1.8-0.5,3.3-1.5,4.6c-1,1.3-2.3,2.4-4.1,3.1C87.2,41.9,85.2,42.3,82.9,42.3z"></path>	<path class="st1" d="M107.3,42.3c-2,0-3.7-0.4-5.2-1.3c-1.5-0.8-2.6-2-3.4-3.5c-0.8-1.5-1.2-3.3-1.2-5.3c0-1.6,0.3-3.1,0.8-4.4  c0.5-1.4,1.3-2.6,2.2-3.6c0.9-1,2-1.9,3.3-2.5c1.2-0.6,2.5-0.9,3.9-0.9c4.7,0,7.1,2.3,7.1,7c0,0.4,0,0.9-0.1,1.3  c-0.1,0.4-0.1,0.8-0.2,1.1l-0.5,0.5h-12c0,2.4,0.5,4.3,1.4,5.7c1,1.4,2.3,2.2,4.1,2.3c1.8,0.2,3.8-0.3,6.2-1.3l0.3,0.1l0.6,1.7  c-0.6,0.4-1.4,0.9-2.2,1.4c-0.9,0.5-1.7,0.9-2.6,1.3C108.8,42.2,108,42.3,107.3,42.3z M102.1,28.6l7.2-0.4c0.4-0.1,0.7-0.2,0.8-0.3  c0.1-0.1,0.2-0.4,0.2-0.8c0-1.2-0.3-2-0.9-2.6c-0.6-0.6-1.4-0.9-2.5-0.9c-1.3,0-2.4,0.4-3.3,1.3C102.8,25.8,102.3,27.1,102.1,28.6z  "></path>	<path class="st1" d="M124.2,42.5c-0.4-1.3-0.7-2.5-1.1-3.5c-0.3-1.1-0.7-2.2-1.1-3.5c-0.4-1.3-0.8-2.5-1.1-3.8  c-0.4-1.3-0.7-2.5-1.1-3.5c-0.3-1-0.6-1.9-0.8-2.5c-0.5-1.5-1.5-2.2-3-2.3l-0.1-0.2l0.3-1.9c1,0,1.8,0,2.4,0c0.6,0,1.1,0,1.5,0  c1,0,1.9,0,2.7-0.1c0.9-0.1,1.9-0.1,3-0.2l0.1,0.2l-0.3,1.9c-1,0-1.6,0.1-1.9,0.3c-0.3,0.2-0.5,0.5-0.5,0.9c0,0.2,0.1,0.6,0.2,1.3  c0.2,0.7,0.4,1.6,0.6,2.6c0.3,1,0.5,2,0.8,3.1c0.3,1,0.5,2,0.8,3c0.3,0.9,0.6,2,0.9,3.1h0.3c1-2.5,1.8-4.7,2.5-6.5  c0.7-1.8,1.3-3.3,1.6-4.4c0.4-1.1,0.6-1.8,0.6-2.1c0-0.4-0.1-0.7-0.4-0.8c-0.3-0.1-0.7-0.2-1.4-0.2h-1.5l-0.2-0.3l0.3-1.9  c1,0,1.9,0,2.7,0c0.7,0,1.5,0,2.2,0c0.6,0,1.1,0,1.7,0c0.6,0,1.3,0,2.1,0l-0.3,2.1c-0.7,0.1-1.1,0.4-1.5,0.7s-0.7,1.1-1.2,2.3  l-6.1,15.3L124.2,42.5z"></path>	<path class="st1" d="M147.4,42.3c-2,0-3.7-0.4-5.2-1.3c-1.5-0.8-2.6-2-3.4-3.5c-0.8-1.5-1.2-3.3-1.2-5.3c0-1.6,0.3-3.1,0.8-4.4  c0.5-1.4,1.3-2.6,2.2-3.6c0.9-1,2-1.9,3.3-2.5c1.2-0.6,2.5-0.9,3.9-0.9c4.7,0,7.1,2.3,7.1,7c0,0.4,0,0.9-0.1,1.3  c-0.1,0.4-0.1,0.8-0.2,1.1l-0.5,0.5h-12c0,2.4,0.5,4.3,1.4,5.7c1,1.4,2.3,2.2,4.1,2.3c1.8,0.2,3.8-0.3,6.2-1.3l0.3,0.1l0.6,1.7  c-0.6,0.4-1.4,0.9-2.2,1.4c-0.9,0.5-1.7,0.9-2.6,1.3C148.9,42.2,148.1,42.3,147.4,42.3z M142.2,28.6l7.2-0.4  c0.4-0.1,0.7-0.2,0.8-0.3c0.1-0.1,0.2-0.4,0.2-0.8c0-1.2-0.3-2-0.9-2.6c-0.6-0.6-1.4-0.9-2.5-0.9c-1.3,0-2.4,0.4-3.3,1.3  C142.9,25.8,142.4,27.1,142.2,28.6z"></path>	<path class="st1" d="M171.1,40c0.8-0.2,1.4-0.5,1.7-1c0.4-0.4,0.5-1,0.5-1.8l0.2-8.4c0-1.4-0.3-2.5-0.9-3.2  c-0.6-0.7-1.4-1.1-2.5-1.1c-0.6,0-1.3,0.1-1.9,0.4c-0.6,0.3-1.2,0.5-1.7,0.9s-0.9,0.6-1.2,0.8c0,0.8-0.1,1.7-0.1,2.8  c0,1-0.1,2.1-0.2,3.1c-0.1,1-0.1,2-0.1,2.8c0,0.9,0,1.5,0,1.9c0,0.8,0.1,1.4,0.4,1.8c0.2,0.3,0.6,0.5,1.2,0.5c0.2,0,0.7,0,1.4-0.1  l0.1,0.2l-0.4,2.3c-1-0.1-1.8-0.1-2.5-0.1c-0.7,0-1.3,0-1.9,0c-0.7,0-1.4,0-2.2,0.1s-1.6,0.1-2.7,0.2l0.3-2.3  c0.9-0.1,1.5-0.4,1.8-0.7s0.5-1,0.5-1.8V26.9c0-1-0.2-1.7-0.5-2.1c-0.3-0.4-0.9-0.6-1.7-0.6h-0.5l-0.2-0.2l0.2-1.8  c1.2-0.2,2.3-0.4,3.4-0.6c1.1-0.2,2.3-0.5,3.7-0.8l0.3,0.4c-0.3,1.2-0.4,2.2-0.5,3l0.1,0.2c0.3-0.2,0.7-0.6,1.3-1s1.2-0.8,1.8-1.2  c0.6-0.4,1.2-0.7,1.8-1c0.6-0.3,1-0.4,1.3-0.4c2,0,3.6,0.5,4.7,1.5c1.1,1,1.7,2.4,1.7,4.2c0,0.4,0,1.1-0.1,2  c-0.1,0.9-0.2,1.9-0.2,3c-0.1,1.1-0.2,2.2-0.2,3.2s-0.1,1.8-0.1,2.4c0,0.8,0.1,1.4,0.4,1.8c0.2,0.4,0.6,0.6,1.2,0.6  c0.2,0,0.7,0,1.5-0.1l0.1,0.2l-0.4,2.3c-0.6,0-1.1-0.1-1.5-0.1c-0.5,0-0.9,0-1.4,0c-0.5,0-1,0-1.4,0c-0.5,0-1,0-1.5,0.1  c-0.5,0-1.1,0.1-1.6,0.2c-0.5,0.1-1.1,0.1-1.7,0.2L171.1,40z"></path>	<path class="st1" d="M200.7,42.5c-0.4-1.4-0.8-2.8-1.1-4c-0.3-1.2-0.8-2.7-1.3-4.3c-0.5-1.6-1-3.4-1.5-5.2  c-0.5-1.8-1.1-3.7-1.7-5.5c-0.6-1.9-1.1-3.6-1.7-5.3c-0.3-0.9-0.7-1.6-1.3-2c-0.6-0.4-1.4-0.6-2.5-0.7l-0.1-0.2l0.3-2.3  c0.8,0,1.5,0.1,2,0.1c0.6,0,1.2,0,1.8,0c0.6,0,1.1,0,1.5,0c0.7,0,1.5,0,2.3-0.1c0.8,0,1.6-0.1,2.3-0.2c0.7-0.1,1.6-0.1,2.5-0.2  l0.2,0.4l-0.2,2.2c-1,0.1-1.8,0.2-2.3,0.3c-0.5,0.1-0.9,0.3-1.1,0.5c-0.2,0.2-0.3,0.5-0.3,1c0,0.2,0.1,0.8,0.3,1.6  c0.2,0.8,0.4,1.8,0.7,3c0.3,1.2,0.6,2.5,1,3.9c0.4,1.4,0.7,2.7,1.1,4.1c0.4,1.3,0.7,2.6,1,3.7c0.3,1.1,0.6,2.3,1,3.6h0.5  c0.3-0.8,0.7-1.8,1.1-3c0.4-1.2,0.9-2.5,1.4-3.9c0.5-1.4,1-2.8,1.5-4.2c0.5-1.4,0.9-2.7,1.3-4c0.4-1.2,0.7-2.3,1-3.1  c0.2-0.8,0.4-1.4,0.4-1.6c0-0.6-0.2-1-0.6-1.2c-0.4-0.3-1.1-0.4-2.1-0.4h-2.1l-0.1-0.2l0.3-2.3c1.4,0.1,2.6,0.2,3.6,0.2  s2,0.1,3,0.1c0.7,0,1.5,0,2.3,0c0.8,0,1.7-0.1,2.7-0.1l-0.3,2.5c-0.8,0-1.4,0.2-1.8,0.5c-0.3,0.3-0.7,0.9-1,1.7l-9.1,23.9  L200.7,42.5z"></path>	<path class="st1" d="M217.4,40c0.9-0.2,1.5-0.5,1.9-1s0.6-1.1,0.6-1.9V26.5c0-0.9-0.1-1.5-0.4-1.9c-0.3-0.4-0.7-0.6-1.3-0.6  c-0.2,0-0.6,0.1-1.1,0.2l0.2-2.1c0.9-0.1,1.8-0.3,2.6-0.4c0.9-0.1,1.7-0.3,2.4-0.4c0.7-0.1,1.5-0.3,2.4-0.5l0.3,0.6  c-0.2,0.3-0.3,0.9-0.4,1.9s-0.2,2.2-0.3,3.7c-0.1,1.5-0.2,3.1-0.2,4.8c0,1.8-0.1,3.6-0.1,5.5c0,0.8,0.1,1.3,0.3,1.7  c0.2,0.4,0.6,0.5,1.1,0.5c0.2,0,0.7,0,1.4-0.1l0.1,0.2l-0.4,2.3c-0.6,0-1.1-0.1-1.5-0.1c-0.4,0-0.9,0-1.4,0c-0.5,0-1,0-1.4,0  c-0.7,0-1.4,0-2.2,0.1s-1.7,0.2-2.8,0.4L217.4,40z M221.6,16.2c-0.9,0-1.5-0.3-2-0.8c-0.4-0.5-0.7-1.2-0.7-1.9  c0-0.9,0.3-1.6,0.9-2.2s1.3-0.9,2.2-0.9c0.8,0,1.5,0.3,1.9,0.8c0.4,0.5,0.7,1.2,0.7,1.9c0,0.9-0.3,1.6-0.8,2.2  C223.3,15.9,222.5,16.2,221.6,16.2z"></path>	<path class="st1" d="M237.6,42.3c-2.1,0-3.6-0.4-4.5-1.3c-0.9-0.9-1.4-2.2-1.4-4.2V26.3c0-0.8-0.2-1.4-0.5-1.7  c-0.3-0.3-1-0.5-2-0.5l-0.3-0.3l0.2-1.7c0.8-0.4,1.6-0.9,2.4-1.4c0.8-0.5,1.5-1,2.1-1.4c0.6-0.5,1.3-1,2-1.6l1.1,0.4  c-0.2,1.3-0.3,2.5-0.4,3.6l6-0.1l0.2,0.1l-0.4,2.7l-5.9-0.1c-0.1,1.3-0.2,2.9-0.2,4.7c-0.1,1.8-0.1,3.7-0.1,5.9  c0,1.4,0.2,2.4,0.7,3s1.3,0.9,2.5,0.9c0.7,0,1.6-0.3,2.9-0.8l0.5,1.3c-0.7,0.6-1.4,1.1-2,1.5c-0.6,0.4-1.1,0.8-1.6,1.1  C238.3,42.2,237.9,42.3,237.6,42.3z"></path>	<path class="st1" d="M260.1,42.3c-1.3,0-2.2-0.3-3-0.9c-0.7-0.6-1.1-1.5-1.3-2.6l-0.3-0.1c-0.7,0.7-1.3,1.2-2,1.8  c-0.6,0.5-1.2,0.9-1.7,1.2c-0.5,0.3-0.9,0.4-1.3,0.4c-1.1,0-2.2-0.3-3.1-0.8s-1.6-1.2-2.1-2.1c-0.5-0.9-0.8-1.9-0.8-3  c0-0.9,0.2-1.7,0.7-2.4c0.4-0.7,1-1.1,1.8-1.3l8.6-2.2l0-1.6c0-1.4-0.3-2.5-1-3.3c-0.7-0.8-1.6-1.2-2.9-1.2c-0.8,0-1.7,0.2-2.7,0.6  c-0.9,0.4-1.8,0.9-2.7,1.6l-0.3-0.2l-0.7-2.2c0.8-0.5,1.8-1,2.8-1.5c1-0.5,2-0.9,2.9-1.3c0.9-0.3,1.6-0.5,2.1-0.5  c1.5,0,2.7,0.2,3.7,0.7c1,0.5,1.8,1.2,2.3,2.1c0.5,0.9,0.8,1.9,0.8,3.1c0,0.4,0,1-0.1,1.8c-0.1,0.8-0.2,1.8-0.3,2.8  c-0.1,1-0.2,2-0.3,2.9c-0.1,0.9-0.1,1.7-0.1,2.3c0,0.6,0.2,1.1,0.5,1.5s0.7,0.5,1.3,0.5c0.4,0,0.9-0.1,1.4-0.3  c0.5-0.2,0.8-0.4,1.1-0.7l0.7,0.9c-0.3,0.4-0.6,0.9-1.1,1.5c-0.4,0.6-0.9,1.1-1.4,1.5C261.2,41.8,260.7,42.1,260.1,42.3z   M251.9,38.6c0.5,0,1.1-0.2,1.8-0.5s1.3-0.8,1.9-1.3l0.2-4.4l-5.5,1.6c-0.8,0.2-1.2,0.8-1.2,1.7c0,0.8,0.3,1.5,0.8,2.1  C250.4,38.3,251,38.6,251.9,38.6z"></path>	<path class="st1" d="M265.5,42.3l0.3-2.3c0.8-0.2,1.3-0.4,1.7-0.8c0.3-0.3,0.5-0.8,0.6-1.3s0.1-1.3,0.1-2.1V14.3  c0-0.8-0.1-1.3-0.2-1.7s-0.4-0.6-0.8-0.7c-0.4-0.1-1-0.1-1.8,0l-0.2-0.1l0.2-1.9c1.3-0.1,2.6-0.3,3.9-0.6c1.3-0.2,2.6-0.5,3.9-0.8  l0.3,0.7c-0.1,0.3-0.2,1-0.4,2.1c-0.1,1.1-0.3,2.6-0.4,4.4c-0.1,1.8-0.2,3.8-0.3,6.1s-0.2,4.7-0.2,7.4c0,2.6-0.1,5.3-0.1,8.1  c0,0.8,0.1,1.4,0.3,1.7c0.2,0.4,0.6,0.5,1.1,0.5l1.5-0.1l0.1,0.2l-0.4,2.2c-0.6,0-1.4-0.1-2.2-0.1s-1.6,0-2.2,0  c-0.6,0-1.3,0-2.2,0.1C267.3,42,266.4,42.1,265.5,42.3z"></path></g><rect x="-296" y="-146.1" style="fill-rule:evenodd;clip-rule:evenodd;fill:none;" width="1.8" height="2.7"></rect></svg>