<svg xmlns="http://www.w3.org/2000/svg" xmlns:xlink="http://www.w3.org/1999/xlink" id="Layer_1" x="0px" y="0px" viewBox="0 0 274 56" style="enable-background:new 0 0 274 56;" xml:space="preserve"><style type="text/css">	.st0{fill-rule:evenodd;clip-rule:evenodd;fill:#FFFFFF;}	.st1{fill:#FFFFFF;}</style><path class="st0" d="M28,0C12.5,0,0,12.5,0,28s12.5,28,28,28s28-12.5,28-28S43.5,0,28,0z M26.1,51.1C26,52.1,6,49.6,5.6,29.7 C15.6,29.3,27.3,39.9,26.1,51.1z M27.8,38.7c-8.5-7.2-7.2-22.8,0.2-29.3C41.3,23.9,28.5,39.3,27.8,38.7z M30,51 c-1.2-11.1,10.5-21.6,20.4-21.3C50,49.5,30.1,52,30,51z"></path><g>	<path class="st1" d="M79.9,42.3c-1.5,0-2.8-0.1-3.9-0.4s-2.3-0.7-3.5-1.2l-0.3-0.5c0.1-0.9,0.2-1.7,0.3-2.4s0.2-1.5,0.2-2.5  c0.1-0.9,0.1-1.9,0.1-2.9l2.7-0.2c0,1.9,0.1,3.4,0.4,4.4s0.8,1.7,1.6,2.1c0.8,0.4,1.9,0.6,3.4,0.6c1.6,0,3-0.4,4-1.2  s1.5-1.8,1.5-3.1c0-0.9-0.3-1.7-1-2.4s-1.5-1.3-2.5-1.8c-1-0.6-2.1-1.1-3.2-1.7c-1.2-0.6-2.3-1.3-3.5-2c-1.1-0.7-2-1.6-2.7-2.5  c-0.7-1-1.1-2.1-1.1-3.5c0-1.7,0.5-3.2,1.4-4.4c1-1.3,2.3-2.3,3.9-3.1c1.7-0.7,3.6-1.1,5.7-1.1c1.4,0,2.6,0.1,3.7,0.3  s2.2,0.5,3.5,0.9l0.2,0.4c-0.3,1.4-0.5,2.6-0.6,3.8c-0.2,1.2-0.3,2.4-0.4,3.8L87.6,22l-0.4-0.3c0.1-0.7,0.1-1.4,0.1-2  c0-1.5-0.4-2.5-1.1-3.1s-2-0.9-3.8-0.9c-1.5,0-2.7,0.4-3.6,1.1c-1,0.7-1.4,1.7-1.4,2.8c0,0.8,0.3,1.6,0.9,2.2s1.3,1.2,2.2,1.8  c0.9,0.5,1.9,1.1,2.9,1.6c1.3,0.6,2.6,1.3,3.8,2.1c1.3,0.7,2.3,1.6,3.1,2.6c0.8,1,1.2,2.2,1.2,3.6c0,1.8-0.5,3.3-1.5,4.6  s-2.3,2.4-4.1,3.1C84.2,41.9,82.2,42.3,79.9,42.3z"></path>	<path class="st1" d="M104.3,42.3c-2,0-3.7-0.4-5.2-1.3c-1.5-0.8-2.6-2-3.4-3.5s-1.2-3.3-1.2-5.3c0-1.6,0.3-3.1,0.8-4.4  c0.5-1.4,1.3-2.6,2.2-3.6c0.9-1,2-1.9,3.3-2.5c1.2-0.6,2.5-0.9,3.9-0.9c4.7,0,7.1,2.3,7.1,7c0,0.4,0,0.9-0.1,1.3s-0.1,0.8-0.2,1.1  l-0.5,0.5H99c0,2.4,0.5,4.3,1.4,5.7c1,1.4,2.3,2.2,4.1,2.3c1.8,0.2,3.8-0.3,6.2-1.3l0.3,0.1l0.6,1.7c-0.6,0.4-1.4,0.9-2.2,1.4  c-0.9,0.5-1.7,0.9-2.6,1.3C105.8,42.2,105,42.3,104.3,42.3z M99.1,28.6l7.2-0.4c0.4-0.1,0.7-0.2,0.8-0.3c0.1-0.1,0.2-0.4,0.2-0.8  c0-1.2-0.3-2-0.9-2.6s-1.4-0.9-2.5-0.9c-1.3,0-2.4,0.4-3.3,1.3C99.8,25.8,99.3,27.1,99.1,28.6z"></path>	<path class="st1" d="M121.2,42.5c-0.4-1.3-0.7-2.5-1.1-3.5c-0.3-1.1-0.7-2.2-1.1-3.5s-0.8-2.5-1.1-3.8c-0.4-1.3-0.7-2.5-1.1-3.5  c-0.3-1-0.6-1.9-0.8-2.5c-0.5-1.5-1.5-2.2-3-2.3l-0.1-0.2l0.3-1.9c1,0,1.8,0,2.4,0s1.1,0,1.5,0c1,0,1.9,0,2.7-0.1  c0.9-0.1,1.9-0.1,3-0.2l0.1,0.2l-0.3,1.9c-1,0-1.6,0.1-1.9,0.3c-0.3,0.2-0.5,0.5-0.5,0.9c0,0.2,0.1,0.6,0.2,1.3  c0.2,0.7,0.4,1.6,0.6,2.6c0.3,1,0.5,2,0.8,3.1c0.3,1,0.5,2,0.8,3c0.3,0.9,0.6,2,0.9,3.1h0.3c1-2.5,1.8-4.7,2.5-6.5s1.3-3.3,1.6-4.4  c0.4-1.1,0.6-1.8,0.6-2.1c0-0.4-0.1-0.7-0.4-0.8c-0.3-0.1-0.7-0.2-1.4-0.2h-1.5l-0.2-0.3l0.3-1.9c1,0,1.9,0,2.7,0  c0.7,0,1.5,0,2.2,0c0.6,0,1.1,0,1.7,0c0.6,0,1.3,0,2.1,0l-0.3,2.1c-0.7,0.1-1.1,0.4-1.5,0.7s-0.7,1.1-1.2,2.3l-6.1,15.3L121.2,42.5  z"></path>	<path class="st1" d="M144.4,42.3c-2,0-3.7-0.4-5.2-1.3c-1.5-0.8-2.6-2-3.4-3.5c-0.8-1.5-1.2-3.3-1.2-5.3c0-1.6,0.3-3.1,0.8-4.4  c0.5-1.4,1.3-2.6,2.2-3.6s2-1.9,3.3-2.5c1.2-0.6,2.5-0.9,3.9-0.9c4.7,0,7.1,2.3,7.1,7c0,0.4,0,0.9-0.1,1.3s-0.1,0.8-0.2,1.1  l-0.5,0.5h-12c0,2.4,0.5,4.3,1.4,5.7c1,1.4,2.3,2.2,4.1,2.3c1.8,0.2,3.8-0.3,6.2-1.3l0.3,0.1l0.6,1.7c-0.6,0.4-1.4,0.9-2.2,1.4  c-0.9,0.5-1.7,0.9-2.6,1.3C145.9,42.2,145.1,42.3,144.4,42.3z M139.2,28.6l7.2-0.4c0.4-0.1,0.7-0.2,0.8-0.3  c0.1-0.1,0.2-0.4,0.2-0.8c0-1.2-0.3-2-0.9-2.6c-0.6-0.6-1.4-0.9-2.5-0.9c-1.3,0-2.4,0.4-3.3,1.3C139.9,25.8,139.4,27.1,139.2,28.6z  "></path>	<path class="st1" d="M168.1,40c0.8-0.2,1.4-0.5,1.7-1c0.4-0.4,0.5-1,0.5-1.8l0.2-8.4c0-1.4-0.3-2.5-0.9-3.2  c-0.6-0.7-1.4-1.1-2.5-1.1c-0.6,0-1.3,0.1-1.9,0.4c-0.6,0.3-1.2,0.5-1.7,0.9s-0.9,0.6-1.2,0.8c0,0.8-0.1,1.7-0.1,2.8  c0,1-0.1,2.1-0.2,3.1c-0.1,1-0.1,2-0.1,2.8c0,0.9,0,1.5,0,1.9c0,0.8,0.1,1.4,0.4,1.8c0.2,0.3,0.6,0.5,1.2,0.5c0.2,0,0.7,0,1.4-0.1  l0.1,0.2l-0.4,2.3c-1-0.1-1.8-0.1-2.5-0.1s-1.3,0-1.9,0c-0.7,0-1.4,0-2.2,0.1s-1.6,0.1-2.7,0.2l0.3-2.3c0.9-0.1,1.5-0.4,1.8-0.7  s0.5-1,0.5-1.8V26.9c0-1-0.2-1.7-0.5-2.1s-0.9-0.6-1.7-0.6h-0.5L155,24l0.2-1.8c1.2-0.2,2.3-0.4,3.4-0.6c1.1-0.2,2.3-0.5,3.7-0.8  l0.3,0.4c-0.3,1.2-0.4,2.2-0.5,3l0.1,0.2c0.3-0.2,0.7-0.6,1.3-1s1.2-0.8,1.8-1.2c0.6-0.4,1.2-0.7,1.8-1s1-0.4,1.3-0.4  c2,0,3.6,0.5,4.7,1.5c1.1,1,1.7,2.4,1.7,4.2c0,0.4,0,1.1-0.1,2s-0.2,1.9-0.2,3c-0.1,1.1-0.2,2.2-0.2,3.2s-0.1,1.8-0.1,2.4  c0,0.8,0.1,1.4,0.4,1.8c0.2,0.4,0.6,0.6,1.2,0.6c0.2,0,0.7,0,1.5-0.1l0.1,0.2l-0.4,2.3c-0.6,0-1.1-0.1-1.5-0.1c-0.5,0-0.9,0-1.4,0  s-1,0-1.4,0c-0.5,0-1,0-1.5,0.1c-0.5,0-1.1,0.1-1.6,0.2c-0.5,0.1-1.1,0.1-1.7,0.2L168.1,40z"></path>	<path class="st1" d="M197.7,42.5c-0.4-1.4-0.8-2.8-1.1-4s-0.8-2.7-1.3-4.3s-1-3.4-1.5-5.2c-0.5-1.8-1.1-3.7-1.7-5.5  c-0.6-1.9-1.1-3.6-1.7-5.3c-0.3-0.9-0.7-1.6-1.3-2s-1.4-0.6-2.5-0.7l-0.1-0.2l0.3-2.3c0.8,0,1.5,0.1,2,0.1c0.6,0,1.2,0,1.8,0  s1.1,0,1.5,0c0.7,0,1.5,0,2.3-0.1c0.8,0,1.6-0.1,2.3-0.2c0.7-0.1,1.6-0.1,2.5-0.2l0.2,0.4l-0.2,2.2c-1,0.1-1.8,0.2-2.3,0.3  s-0.9,0.3-1.1,0.5c-0.2,0.2-0.3,0.5-0.3,1c0,0.2,0.1,0.8,0.3,1.6c0.2,0.8,0.4,1.8,0.7,3s0.6,2.5,1,3.9s0.7,2.7,1.1,4.1  c0.4,1.3,0.7,2.6,1,3.7s0.6,2.3,1,3.6h0.5c0.3-0.8,0.7-1.8,1.1-3c0.4-1.2,0.9-2.5,1.4-3.9s1-2.8,1.5-4.2s0.9-2.7,1.3-4  c0.4-1.2,0.7-2.3,1-3.1c0.2-0.8,0.4-1.4,0.4-1.6c0-0.6-0.2-1-0.6-1.2c-0.4-0.3-1.1-0.4-2.1-0.4H203l-0.1-0.2l0.3-2.3  c1.4,0.1,2.6,0.2,3.6,0.2s2,0.1,3,0.1c0.7,0,1.5,0,2.3,0s1.7-0.1,2.7-0.1l-0.3,2.5c-0.8,0-1.4,0.2-1.8,0.5c-0.3,0.3-0.7,0.9-1,1.7  l-9.1,23.9L197.7,42.5z"></path>	<path class="st1" d="M214.4,40c0.9-0.2,1.5-0.5,1.9-1s0.6-1.1,0.6-1.9V26.5c0-0.9-0.1-1.5-0.4-1.9c-0.3-0.4-0.7-0.6-1.3-0.6  c-0.2,0-0.6,0.1-1.1,0.2l0.2-2.1c0.9-0.1,1.8-0.3,2.6-0.4c0.9-0.1,1.7-0.3,2.4-0.4s1.5-0.3,2.4-0.5l0.3,0.6  c-0.2,0.3-0.3,0.9-0.4,1.9s-0.2,2.2-0.3,3.7s-0.2,3.1-0.2,4.8c0,1.8-0.1,3.6-0.1,5.5c0,0.8,0.1,1.3,0.3,1.7s0.6,0.5,1.1,0.5  c0.2,0,0.7,0,1.4-0.1l0.1,0.2l-0.4,2.3c-0.6,0-1.1-0.1-1.5-0.1s-0.9,0-1.4,0s-1,0-1.4,0c-0.7,0-1.4,0-2.2,0.1s-1.7,0.2-2.8,0.4  L214.4,40z M218.6,16.2c-0.9,0-1.5-0.3-2-0.8c-0.4-0.5-0.7-1.2-0.7-1.9c0-0.9,0.3-1.6,0.9-2.2s1.3-0.9,2.2-0.9  c0.8,0,1.5,0.3,1.9,0.8s0.7,1.2,0.7,1.9c0,0.9-0.3,1.6-0.8,2.2C220.3,15.9,219.5,16.2,218.6,16.2z"></path>	<path class="st1" d="M234.6,42.3c-2.1,0-3.6-0.4-4.5-1.3c-0.9-0.9-1.4-2.2-1.4-4.2V26.3c0-0.8-0.2-1.4-0.5-1.7  c-0.3-0.3-1-0.5-2-0.5l-0.3-0.3l0.2-1.7c0.8-0.4,1.6-0.9,2.4-1.4c0.8-0.5,1.5-1,2.1-1.4c0.6-0.5,1.3-1,2-1.6l1.1,0.4  c-0.2,1.3-0.3,2.5-0.4,3.6l6-0.1l0.2,0.1l-0.4,2.7l-5.9-0.1c-0.1,1.3-0.2,2.9-0.2,4.7c-0.1,1.8-0.1,3.7-0.1,5.9  c0,1.4,0.2,2.4,0.7,3s1.3,0.9,2.5,0.9c0.7,0,1.6-0.3,2.9-0.8l0.5,1.3c-0.7,0.6-1.4,1.1-2,1.5s-1.1,0.8-1.6,1.1  C235.3,42.2,234.9,42.3,234.6,42.3z"></path>	<path class="st1" d="M257.1,42.3c-1.3,0-2.2-0.3-3-0.9c-0.7-0.6-1.1-1.5-1.3-2.6l-0.3-0.1c-0.7,0.7-1.3,1.2-2,1.8  c-0.6,0.5-1.2,0.9-1.7,1.2s-0.9,0.4-1.3,0.4c-1.1,0-2.2-0.3-3.1-0.8s-1.6-1.2-2.1-2.1c-0.5-0.9-0.8-1.9-0.8-3  c0-0.9,0.2-1.7,0.7-2.4c0.4-0.7,1-1.1,1.8-1.3l8.6-2.2v-1.6c0-1.4-0.3-2.5-1-3.3s-1.6-1.2-2.9-1.2c-0.8,0-1.7,0.2-2.7,0.6  c-0.9,0.4-1.8,0.9-2.7,1.6l-0.3-0.2l-0.7-2.2c0.8-0.5,1.8-1,2.8-1.5s2-0.9,2.9-1.3c0.9-0.3,1.6-0.5,2.1-0.5c1.5,0,2.7,0.2,3.7,0.7  s1.8,1.2,2.3,2.1s0.8,1.9,0.8,3.1c0,0.4,0,1-0.1,1.8s-0.2,1.8-0.3,2.8c-0.1,1-0.2,2-0.3,2.9c-0.1,0.9-0.1,1.7-0.1,2.3  s0.2,1.1,0.5,1.5s0.7,0.5,1.3,0.5c0.4,0,0.9-0.1,1.4-0.3s0.8-0.4,1.1-0.7l0.7,0.9c-0.3,0.4-0.6,0.9-1.1,1.5  c-0.4,0.6-0.9,1.1-1.4,1.5C258.2,41.8,257.7,42.1,257.1,42.3z M248.9,38.6c0.5,0,1.1-0.2,1.8-0.5s1.3-0.8,1.9-1.3l0.2-4.4l-5.5,1.6  c-0.8,0.2-1.2,0.8-1.2,1.7c0,0.8,0.3,1.5,0.8,2.1C247.4,38.3,248,38.6,248.9,38.6z"></path>	<path class="st1" d="M262.5,42.3l0.3-2.3c0.8-0.2,1.3-0.4,1.7-0.8c0.3-0.3,0.5-0.8,0.6-1.3s0.1-1.3,0.1-2.1V14.3  c0-0.8-0.1-1.3-0.2-1.7s-0.4-0.6-0.8-0.7c-0.4-0.1-1-0.1-1.8,0l-0.2-0.1l0.2-1.9c1.3-0.1,2.6-0.3,3.9-0.6c1.3-0.2,2.6-0.5,3.9-0.8  l0.3,0.7c-0.1,0.3-0.2,1-0.4,2.1c-0.1,1.1-0.3,2.6-0.4,4.4s-0.2,3.8-0.3,6.1s-0.2,4.7-0.2,7.4c0,2.6-0.1,5.3-0.1,8.1  c0,0.8,0.1,1.4,0.3,1.7c0.2,0.4,0.6,0.5,1.1,0.5l1.5-0.1l0.1,0.2l-0.4,2.2c-0.6,0-1.4-0.1-2.2-0.1s-1.6,0-2.2,0s-1.3,0-2.2,0.1  C264.3,42,263.4,42.1,262.5,42.3z"></path></g><rect x="-296" y="-146.1" class="st1" width="1.8" height="2.7"></rect></svg>